<?xml version="1.0" encoding="UTF-8" standalone="no"?>
<!-- Created with Inkscape (http://www.inkscape.org/) -->

<svg
   xmlns:dc="http://purl.org/dc/elements/1.1/"
   xmlns:cc="http://creativecommons.org/ns#"
   xmlns:rdf="http://www.w3.org/1999/02/22-rdf-syntax-ns#"
   xmlns:svg="http://www.w3.org/2000/svg"
   xmlns="http://www.w3.org/2000/svg"
   xmlns:sodipodi="http://sodipodi.sourceforge.net/DTD/sodipodi-0.dtd"
   xmlns:inkscape="http://www.inkscape.org/namespaces/inkscape"
   version="1.1"
   id="svg2"
   width="64"
   height="64"
   viewBox="0 0 64 64"
   sodipodi:docname="app-icon.svg"
   inkscape:version="0.92.3 (2405546, 2018-03-11)"
   inkscape:export-filename="/home/luca/Dropbox/MATLAB scripts/TrachomaFinder/TrachomaFinder_resources/TrachomaFinder.png"
   inkscape:export-xdpi="192"
   inkscape:export-ydpi="192">
  <metadata
     id="metadata8">
    <rdf:RDF>
      <cc:Work
         rdf:about="">
        <dc:format>image/svg+xml</dc:format>
        <dc:type
           rdf:resource="http://purl.org/dc/dcmitype/StillImage" />
        <dc:title />
      </cc:Work>
    </rdf:RDF>
  </metadata>
  <defs
     id="defs6">
    <clipPath
       clipPathUnits="userSpaceOnUse"
       id="clipPath18">
      <path
         d="M 16.007,48 C 7.203,48 0,40.797 0,31.994 v 0 -15.987 C 0,7.203 7.203,0 16.007,0 V 0 H 31.993 C 40.797,0 48,7.203 48,16.007 v 0 15.987 C 48,40.797 40.797,48 31.993,48 v 0 z"
         id="path16"
         inkscape:connector-curvature="0" />
    </clipPath>
    <linearGradient
       x1="0"
       y1="0"
       x2="1"
       y2="0"
       gradientUnits="userSpaceOnUse"
       gradientTransform="matrix(0,-48,-48,0,24,48)"
       spreadMethod="pad"
       id="linearGradient30">
      <stop
         style="stop-opacity:1;stop-color:#d1b9f1"
         offset="0"
         id="stop24" />
      <stop
         style="stop-opacity:1;stop-color:#c47cc8"
         offset="0.36969361"
         id="stop26" />
      <stop
         style="stop-opacity:1;stop-color:#c45642"
         offset="1"
         id="stop28" />
    </linearGradient>
  </defs>
  <sodipodi:namedview
     pagecolor="#ffffff"
     bordercolor="#666666"
     borderopacity="1"
     objecttolerance="10"
     gridtolerance="10"
     guidetolerance="10"
     inkscape:pageopacity="0"
     inkscape:pageshadow="2"
     inkscape:window-width="1853"
     inkscape:window-height="1016"
     id="namedview4"
     showgrid="false"
     showguides="true"
     inkscape:guide-bbox="true"
     inkscape:zoom="4.6514368"
     inkscape:cx="32"
     inkscape:cy="32"
     inkscape:window-x="67"
     inkscape:window-y="27"
     inkscape:window-maximized="1"
     inkscape:current-layer="g865" />
  <g
     transform="matrix(1.3333333,0,0,-1.3333333,0.0341312,63.925013)"
     id="g12">
    <g
       id="g14"
       clip-path="url(#clipPath18)">
      <g
         id="g20">
        <g
           id="g22">
          <path
             d="M 16.007,48 C 7.203,48 0,40.797 0,31.994 v 0 -15.987 C 0,7.203 7.203,0 16.007,0 V 0 H 31.993 C 40.797,0 48,7.203 48,16.007 v 0 15.987 C 48,40.797 40.797,48 31.993,48 v 0 z"
             style="fill:url(#linearGradient30);stroke:none"
             id="path32"
             inkscape:connector-curvature="0" />
        </g>
      </g>
    </g>
  </g>
  <g
     id="g42"
     transform="matrix(1.3333333,0,0,-1.3333333,3.2841312,42.063014)"
     style="fill:#c59e6f;fill-opacity:1">
    <path
       d="m 0,0 v 15.27 c 0,7.677 6.281,13.959 13.958,13.959 h 14.833 c 7.678,0 13.959,-6.282 13.959,-13.959 V 0 c 0,-7.678 -6.281,-13.959 -13.959,-13.959 H 13.958 C 6.281,-13.959 0,-7.678 0,0"
       style="fill:#c59e6f;fill-opacity:1;fill-rule:nonzero;stroke:none"
       id="path44"
       inkscape:connector-curvature="0" />
  </g>
  <g
     id="g865"
     transform="matrix(-0.30997811,0,0,0.30997811,204.21356,-47.427339)">
    <path
       inkscape:connector-curvature="0"
       id="path3398"
       d="m 468.37237,293.38165 c 0.16267,-2.20442 0.53891,-4.39265 1.52527,-6.4534 2.87503,-6.00661 10.3016,-8.89935 16.08375,-5.84919 4.65078,2.45339 6.84377,8.89663 4.11846,13.69452 -2.08471,3.66985 -6.99816,5.53101 -10.80481,3.10234 -1.34455,-0.85779 -2.31562,-2.20795 -2.72798,-3.72657 -0.41236,-1.5185 -0.20763,-3.27523 0.89151,-4.6714 0.67834,-0.86164 1.65227,-1.44544 2.76366,-1.64035 1.11135,-0.19492 2.47835,0.12251 3.29858,1.21242 0.54079,0.71863 0.57934,1.37856 0.42792,2.15742 -0.0757,0.38943 -0.23694,0.86139 -0.71319,1.21242 -0.47627,0.35103 -1.30202,0.58917 -1.69385,0.1783 -0.33574,-0.35206 0.20467,-0.95636 0.22151,-1.44255 0.0118,-0.25224 0.0234,-0.52526 -0.0789,-0.75056 -0.27201,-0.3477 -0.56092,-0.40706 -1.05197,-0.32094 -0.50193,0.088 -1.10632,0.44108 -1.39074,0.80233 v 0.0178 c -0.61343,0.7882 -0.71938,1.69685 -0.46359,2.63884 0.24764,0.91195 0.86652,1.79534 1.65818,2.33573 l 0.0892,0.0713 c 2.59191,1.65357 5.60653,0.21328 7.09522,-2.40732 2.03714,-3.58613 0.4584,-7.97181 -3.11963,-9.85936 -4.57343,-2.4125 -10.84181,0.44012 -12.24192,5.1822 -1.38495,4.69051 -0.87098,9.38406 -0.0831,11.37777 l -3.21791,0.0221 c -0.77585,-3.66682 -0.58501,-4.56039 -0.58501,-6.88411 z"
       style="stroke-width:0.30331823" />
    <path
       style="fill:#ffffff;stroke-width:0.30331823"
       inkscape:connector-curvature="0"
       id="path3400"
       d="m 601.18633,261.78802 c 5.35902,-4.1233 7.91569,-10.82754 8.95486,-17.31279 0.44421,-2.8497 0.59893,-5.78397 0.0429,-8.63001 4.27679,0.0907 7.8332,2.83172 11.0508,5.35751 5.64262,4.71053 10.68529,10.25944 14.32117,16.67249 1.10168,1.87302 -1.62079,1.40549 -2.6713,1.79664 -9.32066,1.77205 -18.81543,3.5649 -28.34145,2.70451 -1.12946,-0.12877 -2.25304,-0.31709 -3.35743,-0.58853 z" />
    <path
       style="fill:#ffffff;stroke-width:0.30331823"
       inkscape:connector-curvature="0"
       id="path3402"
       d="m 545.5153,246.68581 c 3.28069,-4.19276 8.04491,-6.92051 12.84098,-9.04525 3.7848,-1.62612 7.80104,-2.78901 11.92253,-3.07352 1.09212,-0.14914 2.18425,-0.29828 3.27644,-0.44743 -1.78539,4.06447 -2.83123,8.81928 -1.1982,13.11033 1.75215,4.62196 5.20039,8.30364 7.58114,12.58467 1.39584,1.58508 -1.61417,0.83955 -2.56714,1.07235 -7.71975,-0.007 -15.586,-1.35699 -22.52289,-4.85491 -3.95921,-2.04889 -7.63604,-5.11486 -9.3328,-9.34615 z" />
    <path
       style="fill:#000000;stroke-width:0.30331823"
       inkscape:connector-curvature="0"
       id="path3404"
       d="m 608.4235,230.34606 a 21.302343,21.302343 0 0 1 4.37991,12.98505 21.303556,21.303556 0 0 1 -42.60711,0 21.302343,21.302343 0 0 1 4.33139,-12.98505 z" />
    <path
       style="stroke:#000000;stroke-width:0.30331823"
       inkscape:connector-curvature="0"
       id="path3406"
       d="m 613.82256,323.92883 c 2.04234,0 2.64303,-1.65193 3.69472,-7.85564 0.7425,-4.48122 2.15563,-8.63335 3.18545,-13.05573 0.9166,-3.97862 1.71147,-6.16706 2.93291,-8.07372 1.98752,-3.10264 1.91124,-6.34572 -0.21746,-9.24544 -1.92,-2.61558 -2.07075,-3.3732 -1.98585,-9.97948 0.0418,-3.25308 0.17108,-6.45643 0.28728,-7.11827 0.26715,-1.52202 1.39975,-2.33321 4.21733,-3.02062 2.57296,-0.62772 5.01234,-0.6956 12.72936,-0.35431 5.5034,0.2434 6.20498,0.21937 6.90049,-0.23629 1.70677,-1.11833 0.89561,-2.68148 -3.71899,-7.16619 -4.75906,-4.6253 -7.24202,-7.48832 -11.77208,-13.57349 -8.14076,-10.93553 -9.38072,-12.38448 -17.4411,-14.91992 -5.93746,-1.8679 -8.09587,-2.73347 -18.81513,-3.05138 -7.47801,-0.2217 -11.75874,0.7875 -13.75761,1.01508 -7.64938,0.87101 -20.09392,4.51247 -27.88495,7.91145 -4.11937,1.79713 -4.2592,1.87217 -9.13443,4.8992 -3.63406,2.25641 -5.68206,3.1724 -10.7496,4.56008 -10.58156,2.8976 -17.21422,2.35324 -27.90528,3.14784 -2.80809,0.20871 -14.95298,1.06613 -22.59721,1.35838 -9.30853,0.35585 -10.86941,-0.61804 -11.65439,0.16681 -0.61619,0.61619 -0.17095,2.4816 -0.18272,4.33927 -0.007,1.13374 0.0558,2.32469 0.14732,3.51909 2.48487,-0.43192 2.43725,-0.41481 8.05006,-0.88462 0.50982,-0.0427 5.07088,-0.50639 13.49766,-1.26563 3.59948,-0.3243 21.33116,-0.86288 32.00008,-1.19046 5.1555,-0.1583 10.4211,-1.43251 15.46923,-0.37451 1.74784,0.36629 -0.72402,-0.33853 4.85309,2.26919 11.01439,4.26192 16.94123,7.21593 31.69675,9.95793 9.33432,1.37103 10.0726,1.50886 11.03351,2.21146 0.52947,0.38716 0.50411,0.4905 -0.50858,2.07358 -1.08108,1.69 -4.32986,4.79546 -9.00824,8.6109 -15.65699,13.21376 -34.89677,23.48623 -49.40751,29.90657 -6.74003,2.88522 -11.3896,4.44513 -15.19867,5.09908 -18.77297,4.14151 -40.72351,-2.87964 -41.28465,-17.2767 -0.0148,-0.38097 -0.15144,-1.82021 0.0424,-3.66378 0.1351,-1.28477 0.27185,-2.22078 0.69557,-3.36532 1.20706,-3.26067 3.76509,-6.18981 8.69674,-6.59868 3.56278,0.007 6.18011,1.86725 7.26448,4.90465 1.3838,3.87641 -0.39993,8.21113 -4.25344,8.9676 -2.01412,0.39547 -3.40383,-0.15942 -4.32865,-1.35519 -1.01381,-1.31097 -1.12834,-3.64771 -0.41127,-4.74208 0.69026,-1.05348 2.19781,-1.60012 3.28312,-1.19046 1.09573,0.4136 1.51456,0.11088 0.19831,-0.96574 -0.11537,-0.0754 -0.23612,-0.1391 -0.36126,-0.1915 -2.02237,-0.8468 -5.19493,1.25046 -5.43333,4.2874 -0.21594,3.48665 2.33691,6.15099 5.83857,6.35149 1.99156,0.11397 4.42662,-0.59648 6.07425,-2.36695 4.07205,-4.37627 2.78179,-10.58125 -0.8974,-13.88044 -1.39924,-1.25471 -2.35178,-1.8376 -4.26617,-2.26801 -5.87527,-1.32107 -11.43206,1.369 -13.80947,7.37094 -1.08118,2.72962 -1.14275,4.91406 -1.16823,7.04335 -0.21365,17.86393 19.94075,26.44996 40.02284,25.02891 8.49564,-0.73169 14.0221,-2.06544 24.4156,-6.3439 11.09538,-3.66712 43.50797,-20.7227 63.07806,-36.49828 5.71634,-4.64593 9.25455,-6.9196 10.02619,-6.44248 0.1868,0.11545 0.30025,3.63739 0.30095,9.34281 10e-4,8.72282 0.0309,9.20631 0.62839,10.18633 0.99467,1.63158 1.49687,5.37632 1.81451,13.53042 0.49522,12.71328 0.81137,18.47663 1.04459,19.04172 0.42353,1.02612 2.13251,1.41473 4.0308,1.41473 z m -67.22138,-76.51809 c -0.1268,-0.65841 1.3966,-2.6159 3.40657,-3.9674 3.15329,-2.11998 6.78977,-3.4918 10.34072,-4.84096 21.81889,-7.13344 44.00541,-6.08608 52.78647,-1.50506 3.21305,1.56245 4.28467,2.3589 6.9196,4.7263 1.25243,1.12537 2.91001,2.95144 3.6835,4.0581 1.55693,2.2272 3.03743,4.04596 5.76729,7.08612 2.82165,3.14207 4.39811,5.08785 4.39811,5.42848 0,0.47685 -2.39506,0.95509 -5.30806,1.08615 -24.61428,3.12175 -69.89666,4.30651 -81.99299,-12.07176 z M 478.6033,226.37532 c 5.02234,-0.15167 12.88101,-0.61143 19.2607,-1.48486 5.92229,-0.81083 11.84367,-1.84023 17.59246,-3.47815 5.45427,-1.5539 10.65375,-3.89764 15.92421,-5.99175 2.34292,-0.93101 4.64683,-1.9574 6.97632,-2.9215 2.5233,-1.0443 5.01385,-2.17549 7.58295,-3.10113 4.70841,-1.6964 9.39862,-3.62344 14.32845,-4.48577 12.73573,-2.2283 25.86122,-2.66292 38.75194,-1.66783 7.14436,0.5515 14.16345,2.33932 21.08062,4.20945 5.41817,1.46482 10.6219,3.63133 15.92421,5.47217 1.53752,0.53414 3.04501,2.075 4.60346,1.61396 1.6367,-0.48531 3.2546,-2.35042 3.12933,-4.05264 -0.13164,-1.78472 -2.3765,-2.73411 -3.86822,-3.72232 -5.10272,-3.38079 -11.07051,-5.30352 -16.88299,-7.21988 -5.82948,-1.9215 -11.80606,-3.67835 -17.91762,-4.24676 -16.47806,-1.53273 -33.3923,-1.04042 -49.59253,2.34371 -8.58087,1.79255 -16.3625,6.29658 -24.56877,9.3786 -9.53542,3.58097 -18.73294,8.32426 -28.66358,10.58853 -10.02315,2.2852 -25.40138,2.92071 -30.70187,2.90916 -1.98446,-0.004 -2.05301,0.0215 -2.53559,0.95469 -0.56159,1.08603 -0.94805,4.33624 -0.54373,4.57313 0.4063,0.23786 6.54955,0.43839 10.12355,0.33044 z" />
  </g>
</svg>
