<?xml version="1.0" encoding="UTF-8" standalone="no"?>
<!-- Created with Inkscape (http://www.inkscape.org/) -->

<svg
   xmlns:dc="http://purl.org/dc/elements/1.1/"
   xmlns:cc="http://creativecommons.org/ns#"
   xmlns:rdf="http://www.w3.org/1999/02/22-rdf-syntax-ns#"
   xmlns:svg="http://www.w3.org/2000/svg"
   xmlns="http://www.w3.org/2000/svg"
   xmlns:sodipodi="http://sodipodi.sourceforge.net/DTD/sodipodi-0.dtd"
   xmlns:inkscape="http://www.inkscape.org/namespaces/inkscape"
   id="svg2"
   height="48"
   width="48"
   version="1.0"
   sodipodi:docname="Mushroom-cutout.svg"
   inkscape:version="0.92.3 (2405546, 2018-03-11)"
   inkscape:export-filename="/home/luca/Dropbox/MATLAB scripts/FollicleFinder/Follicle Finder_resources/48px-Mushroom-cutout.png"
   inkscape:export-xdpi="96"
   inkscape:export-ydpi="96">
  <sodipodi:namedview
     pagecolor="#ffffff"
     bordercolor="#666666"
     borderopacity="1"
     objecttolerance="10"
     gridtolerance="10"
     guidetolerance="10"
     inkscape:pageopacity="0"
     inkscape:pageshadow="2"
     inkscape:window-width="1853"
     inkscape:window-height="1016"
     id="namedview27"
     showgrid="false"
     inkscape:zoom="9.8333333"
     inkscape:cx="25.983051"
     inkscape:cy="24"
     inkscape:window-x="67"
     inkscape:window-y="27"
     inkscape:window-maximized="1"
     inkscape:current-layer="g962" />
  <metadata
     id="metadata4687">
    <rdf:RDF>
      <cc:Work
         rdf:about="">
        <dc:format>image/svg+xml</dc:format>
        <dc:type
           rdf:resource="http://purl.org/dc/dcmitype/StillImage" />
        <dc:title></dc:title>
        <dc:creator>
          <cc:Agent>
            <dc:title>Andrew Higginson</dc:title>
          </cc:Agent>
        </dc:creator>
        <cc:license
           rdf:resource="http://creativecommons.org/licenses/by-sa/4.0/" />
      </cc:Work>
      <cc:License
         rdf:about="http://creativecommons.org/licenses/by-sa/3.0/">
        <cc:permits
           rdf:resource="http://creativecommons.org/ns#Reproduction" />
        <cc:permits
           rdf:resource="http://creativecommons.org/ns#Distribution" />
        <cc:requires
           rdf:resource="http://creativecommons.org/ns#Notice" />
        <cc:requires
           rdf:resource="http://creativecommons.org/ns#Attribution" />
        <cc:permits
           rdf:resource="http://creativecommons.org/ns#DerivativeWorks" />
        <cc:requires
           rdf:resource="http://creativecommons.org/ns#ShareAlike" />
      </cc:License>
    </rdf:RDF>
  </metadata>
  <defs
     id="defs4">
    <radialGradient
       id="radialGradient5305"
       gradientUnits="userSpaceOnUse"
       cy="537.53"
       cx="436.73"
       gradientTransform="matrix(1.2279e-7,0.17872,-0.99562,6.8401e-7,748.63,140.01)"
       r="212.52">
      <stop
         id="stop3220"
         offset="0" />
      <stop
         id="stop3222"
         stop-opacity="0"
         offset="1" />
    </radialGradient>
    <radialGradient
       id="radialGradient5307"
       gradientUnits="userSpaceOnUse"
       cy="314.05"
       cx="276.82"
       gradientTransform="matrix(0,0.88122,-1.8234,0,707.91,-204.77)"
       r="212.52">
      <stop
         id="stop3262"
         stop-color="#ef2929"
         offset="0" />
      <stop
         id="stop3264"
         stop-color="#c00"
         offset="1" />
    </radialGradient>
  </defs>
  <g
     id="g962">
    <g
       transform="matrix(0.11912,0,0,0.11912,-21.4307,0.59834)"
       id="g5288">
      <g
         transform="matrix(0.55612,0,0,1,94.333,0)"
         id="g5267">
        <path
           style="fill:#eeeeec;fill-rule:evenodd;stroke:#2e3436;stroke-width:12;stroke-linejoin:round"
           inkscape:connector-curvature="0"
           d="m 357.31,339.46 c -25,-51.89 -32.62,-95.94 -21.66,-115.92 10.7,-19.5 63.76,5.48 83.51,-26.73 C 438.63,165.05 387.5,2.96 204.62,2 24.26,1.0651 -9.71,169.06 5.09,197.76 c 14.54,28.2 63.72,7.23 83.514,22.31 19.796,15.09 5.112,83.53 -15.336,123.81 -20.194,39.79 75.402,49.97 147.04,49.02 71.63,-0.94 161.27,-3.05 137,-53.44 z"
           id="path3284" />
        <path
           style="fill:none;stroke:#ffffff;stroke-width:12"
           inkscape:connector-curvature="0"
           d="m 319.09,237.98 c -84.55,7.9 -144.44,5.87 -209,3.62 1.05,29.48 -9.91,74.95 -25.309,107.68 -1.47,3.13 -1.388,4.57 -1.156,5.63 0.232,1.05 0.83,2.36 3.031,4.34 4.404,3.96 15.084,8.86 29.154,12.28 28.14,6.84 69.17,9.15 104.35,8.69 35.76,-0.47 75.76,-1.51 101.59,-7.84 12.92,-3.17 21.66,-7.95 24.72,-11.6 3.06,-3.65 4.13,-6 -0.59,-15.81 -0.04,-0.05 -0.07,-0.11 -0.1,-0.16 -18.97,-41.02 -27.27,-78.79 -26.69,-106.83 z"
           id="path5246" />
        <path
           inkscape:connector-curvature="0"
           style="opacity:0.55128;fill:url(#radialGradient5305);fill-rule:evenodd"
           d="m 357.31,285.91 c -25,-51.9 -32.62,-42.39 -21.66,-62.37 10.7,-19.5 63.76,5.48 83.51,-26.73 C 438.63,165.05 387.5,2.96 204.62,2 24.26,1.0651 -9.71,169.06 5.09,197.76 c 14.54,28.2 63.72,7.23 83.514,22.31 19.796,15.09 5.112,29.97 -15.336,70.26 -20.194,39.78 70.882,14.91 142.51,13.96 71.64,-0.94 165.8,32 141.53,-18.38 z"
           id="path2383" />
      </g>
      <g
         transform="matrix(0.88922,0,0,1,23.542,0)"
         id="g5274">
        <path
           inkscape:connector-curvature="0"
           style="fill:url(#radialGradient5307);fill-rule:evenodd;stroke:#780000;stroke-width:12;stroke-linejoin:round"
           d="m 303.55,227.32 c 40.31,-4.83 95.86,1.7 115.61,-30.51 C 438.63,165.05 387.5,2.96 204.62,2 24.26,1.0651 -9.71,169.06 5.09,197.76 c 14.54,28.2 74.881,30.19 111.84,31.76 36.93,1.56 146.92,2.55 186.62,-2.2 z"
           id="path2387" />
        <path
           style="fill:#ffffff"
           inkscape:connector-curvature="0"
           d="m 72.617,124.5 c -4.775,14.67 -15.876,24.22 -24.791,21.31 -8.915,-2.9 -12.265,-17.15 -7.481,-31.82 4.775,-14.676 15.876,-24.22 24.791,-21.316 8.915,2.904 12.265,17.156 7.481,31.826 z"
           id="path3272" />
        <path
           style="fill:#ffffff"
           inkscape:connector-curvature="0"
           d="m 145.64,80.871 c -9.45,10.458 -24.26,12.688 -33.06,4.98 -8.81,-7.708 -8.28,-22.433 1.18,-32.884 9.46,-10.458 24.26,-12.689 33.07,-4.981 8.8,7.708 8.27,22.434 -1.19,32.885 z"
           id="path3274" />
        <path
           style="fill:#ffffff"
           inkscape:connector-curvature="0"
           d="m 282.76,129.11 c 5.48,14.38 -4.82,28.27 -22.99,31.03 -18.17,2.75 -37.33,-6.68 -42.78,-21.06 -5.48,-14.38 4.82,-28.28 22.99,-31.03 18.17,-2.76 37.33,6.67 42.78,21.06 z"
           id="path3276" />
        <path
           style="fill:#ffffff"
           inkscape:connector-curvature="0"
           d="m 306.81,38.724 c 11.21,8.819 10.94,17.049 -0.59,18.38 -11.54,1.332 -29.97,-4.741 -41.16,-13.561 -11.2,-8.818 -10.93,-17.048 0.6,-18.38 11.53,-1.331 29.96,4.742 41.15,13.561 z"
           id="path3278" />
        <path
           style="fill:#ffffff"
           inkscape:connector-curvature="0"
           d="m 374.03,167.81 c -4.64,13.78 -16.08,17.37 -25.55,8.03 -9.46,-9.35 -13.36,-28.09 -8.71,-41.86 4.64,-13.78 16.08,-17.38 25.55,-8.03 9.46,9.34 13.37,28.09 8.71,41.86 z"
           id="path3280" />
        <path
           style="fill:#ffffff"
           inkscape:connector-curvature="0"
           d="m 167.42,169.44 c 6.27,15.6 -0.53,33.33 -15.19,39.58 -14.65,6.25 -31.61,-1.33 -37.86,-16.94 -6.27,-15.6 0.53,-33.32 15.18,-39.58 14.66,-6.25 31.61,1.34 37.87,16.94 z"
           id="path3282" />
        <path
           style="fill:#ffffff"
           inkscape:connector-curvature="0"
           d="m 213.4,73.159 c -1.54,6.54 -8.62,11.423 -15.82,10.905 -7.19,-0.518 -11.78,-6.241 -10.23,-12.78 1.54,-6.54 8.63,-11.423 15.82,-10.905 7.2,0.518 11.78,6.24 10.23,12.78 z"
           id="path3288" />
        <path
           style="fill:#ffffff"
           inkscape:connector-curvature="0"
           d="m 331.07,87.891 c 0.86,6.293 -2.92,9.92 -8.44,8.099 -5.52,-1.82 -10.68,-8.398 -11.53,-14.689 -0.86,-6.293 2.92,-9.92 8.44,-8.099 5.51,1.82 10.68,8.398 11.53,14.689 z"
           id="path3290" />
        <path
           style="opacity:0.66239002;fill:none;stroke:#ffffff;stroke-width:12;stroke-linejoin:round"
           inkscape:connector-curvature="0"
           d="M 204.56,14.625 C 118.31,14.176 69.6,53.079 42.31,95.594 28.667,116.85 20.681,139.13 17.062,157.38 c -3.618,18.24 -1.247,33.62 -0.75,34.59 4.068,7.89 18.629,15.34 38.719,19.28 20.09,3.94 43.895,4.87 62.439,5.66 36.09,1.53 147.8,2.27 184.56,-2.13 21.51,-2.57 45.33,-2.14 65.28,-4.94 19.96,-2.79 34.18,-8.34 41.1,-19.62 1.07,-1.76 3.38,-16.13 -1.1,-34.06 C 402.84,138.22 393.24,116.34 377.66,95.406 346.49,53.533 292.28,15.082 204.56,14.625 Z"
           id="path5251" />
      </g>
    </g>
    <rect
       style="opacity:1;fill:#ffffff;fill-opacity:1;stroke:none;stroke-width:2;stroke-linecap:round;stroke-linejoin:round;stroke-miterlimit:4;stroke-dasharray:none;stroke-dashoffset:0;stroke-opacity:1;paint-order:fill markers stroke"
       id="rect988"
       width="28.576271"
       height="61.830509"
       x="-26.033897"
       y="-7.4237289"
       ry="0.10169903" />
  </g>
  <rect
     style="opacity:1;fill:#fd0000;fill-opacity:1;stroke:none;stroke-width:2;stroke-linecap:round;stroke-linejoin:round;stroke-miterlimit:4;stroke-dasharray:none;stroke-dashoffset:0;stroke-opacity:1;paint-order:fill markers stroke"
     id="rect837"
     width="13.423729"
     height="18.915255"
     x="32.338982"
     y="26.847458"
     ry="4.8813558" />
  <path
     id="path3280-3"
     d="m 41.925882,39.329946 c -0.788043,2.631914 -2.730976,3.317587 -4.339331,1.533691 -1.606656,-1.785806 -2.26902,-5.365058 -1.479279,-7.995062 0.788044,-2.631916 2.730977,-3.319499 4.339331,-1.533693 1.606656,1.783896 2.270719,5.365058 1.479279,7.995064 z"
     inkscape:connector-curvature="0"
     style="fill:#ffffff;stroke-width:0.18010563" />
  <rect
     style="opacity:1;fill:#fd0000;fill-opacity:1;stroke:none;stroke-width:1.09703529;stroke-linecap:round;stroke-linejoin:round;stroke-miterlimit:4;stroke-dasharray:none;stroke-dashoffset:0;stroke-opacity:1;paint-order:fill markers stroke"
     id="rect837-6"
     width="8.4406786"
     height="9.050848"
     x="34.779659"
     y="16.20339"
     ry="2.3357024" />
  <path
     id="path3290-5"
     d="m 40.608995,21.626627 c 0.147333,1.212474 -0.500271,1.911288 -1.445991,1.560435 -0.94572,-0.350659 -1.829763,-1.618042 -1.975391,-2.83013 -0.147333,-1.212474 0.500273,-1.911288 1.445993,-1.560435 0.944007,0.350659 1.829762,1.618044 1.975389,2.83013 z"
     inkscape:connector-curvature="0"
     style="fill:#ffffff;stroke-width:0.18168493" />
  <rect
     style="opacity:1;fill:#fd0000;fill-opacity:1;stroke:none;stroke-width:1.74077642;stroke-linecap:round;stroke-linejoin:round;stroke-miterlimit:4;stroke-dasharray:none;stroke-dashoffset:0;stroke-opacity:1;paint-order:fill markers stroke"
     id="rect837-6-3"
     width="15.254237"
     height="12.61017"
     x="31.50848"
     y="1.5762708"
     ry="3.2542372" />
  <path
     id="path3276-6"
     d="m 44.447576,7.1536578 c 0.860719,2.53998 -0.757055,4.9934102 -3.610934,5.4809162 -2.85388,0.48574 -5.863255,-1.179906 -6.719261,-3.7198872 -0.860719,-2.5399795 0.757055,-4.9951766 3.610935,-5.4809169 2.853879,-0.4875067 5.863254,1.1781411 6.71926,3.7198879 z"
     inkscape:connector-curvature="0"
     style="fill:#ffffff;stroke-width:0.16656207" />
</svg>
