<?xml version="1.0" encoding="UTF-8" standalone="no"?>
<svg
   xmlns:dc="http://purl.org/dc/elements/1.1/"
   xmlns:cc="http://creativecommons.org/ns#"
   xmlns:rdf="http://www.w3.org/1999/02/22-rdf-syntax-ns#"
   xmlns:svg="http://www.w3.org/2000/svg"
   xmlns="http://www.w3.org/2000/svg"
   xmlns:xlink="http://www.w3.org/1999/xlink"
   xmlns:sodipodi="http://sodipodi.sourceforge.net/DTD/sodipodi-0.dtd"
   xmlns:inkscape="http://www.inkscape.org/namespaces/inkscape"
   height="48px"
   width="48px"
   version="1.1"
   id="svg108"
   sodipodi:docname="ValidateFollicles.svg"
   inkscape:version="0.92.3 (2405546, 2018-03-11)"
   inkscape:export-filename="/home/luca/Dropbox/MATLAB scripts/FollicleFinder/Follicle Finder_resources/48px-ValidateFollicles.png"
   inkscape:export-xdpi="96"
   inkscape:export-ydpi="96">
  <metadata
     id="metadata112">
    <rdf:RDF>
      <cc:Work
         rdf:about="">
        <dc:format>image/svg+xml</dc:format>
        <dc:type
           rdf:resource="http://purl.org/dc/dcmitype/StillImage" />
      </cc:Work>
    </rdf:RDF>
  </metadata>
  <sodipodi:namedview
     pagecolor="#ffffff"
     bordercolor="#666666"
     borderopacity="1"
     objecttolerance="10"
     gridtolerance="10"
     guidetolerance="10"
     inkscape:pageopacity="0"
     inkscape:pageshadow="2"
     inkscape:window-width="1853"
     inkscape:window-height="1016"
     id="namedview110"
     showgrid="false"
     inkscape:zoom="4.9166667"
     inkscape:cx="25.220339"
     inkscape:cy="23.79661"
     inkscape:window-x="67"
     inkscape:window-y="27"
     inkscape:window-maximized="1"
     inkscape:current-layer="svg108" />
  <defs
     id="defs48">
    <linearGradient
       id="i"
       y2="-.2"
       gradientUnits="userSpaceOnUse"
       y1="12.17"
       x2="25.69"
       x1="25.68">
      <stop
         stop-color="#fff"
         offset="0"
         id="stop2" />
      <stop
         stop-opacity="0"
         stop-color="#fff"
         offset="1"
         id="stop4" />
    </linearGradient>
    <linearGradient
       id="e"
       x1="25.4"
       xlink:href="#b"
       gradientUnits="userSpaceOnUse"
       y1="3.82"
       gradientTransform="matrix(1,0,0,0.884,79.37,0.84)"
       x2="25.46"
       y2="9.32" />
    <linearGradient
       id="h"
       x1="33.4"
       xlink:href="#i"
       gradientUnits="userSpaceOnUse"
       x2="34.2"
       y1="36.92"
       y2="38.1" />
    <linearGradient
       id="f"
       xlink:href="#b"
       gradientUnits="userSpaceOnUse"
       y1="3.82"
       gradientTransform="matrix(0.539,0,0,0.512,90.8,-0.58)"
       x2="0"
       y2="6.48" />
    <linearGradient
       id="g"
       x1="26.1"
       xlink:href="#i"
       gradientUnits="userSpaceOnUse"
       x2="30.81"
       y1="26.7"
       y2="42" />
    <linearGradient
       id="j"
       y2="37.77"
       gradientUnits="userSpaceOnUse"
       y1="40.46"
       x2="33.66"
       x1="36"
       gradientTransform="translate(80)">
      <stop
         stop-color="#7c7c7c"
         offset="0"
         id="stop11" />
      <stop
         stop-color="#b8b8b8"
         offset="1"
         id="stop13" />
    </linearGradient>
    <linearGradient
       id="b">
      <stop
         stop-color="#97978a"
         offset="0"
         id="stop16" />
      <stop
         stop-color="#c2c2b9"
         offset=".5"
         id="stop18" />
      <stop
         stop-color="#7d7d6f"
         offset="1"
         id="stop20" />
    </linearGradient>
    <linearGradient
       id="n"
       y2="37.88"
       gradientUnits="userSpaceOnUse"
       y1="10.45"
       x2="33.86"
       x1="6.11"
       gradientTransform="translate(80)">
      <stop
         stop-color="#c68827"
         offset="0"
         id="stop23" />
      <stop
         stop-color="#89601f"
         offset="1"
         id="stop25" />
    </linearGradient>
    <linearGradient
       id="k"
       y2="42.1"
       gradientUnits="userSpaceOnUse"
       y1="39.2"
       x2="39.1"
       x1="36.81"
       gradientTransform="translate(80)">
      <stop
         offset="0"
         id="stop28" />
      <stop
         stop-opacity="0"
         offset="1"
         id="stop30" />
    </linearGradient>
    <linearGradient
       id="m"
       y2="39.5"
       gradientUnits="userSpaceOnUse"
       y1="18.99"
       gradientTransform="matrix(1.066,0,0,0.988,78.44,0.07)"
       x2="35.79"
       x1="22.31">
      <stop
         stop-color="#f0f0ef"
         offset="0"
         id="stop33" />
      <stop
         stop-color="#e8e8e8"
         offset=".6"
         id="stop35" />
      <stop
         stop-color="#fff"
         offset=".83"
         id="stop37" />
      <stop
         stop-color="#d8d8d3"
         offset="1"
         id="stop39" />
    </linearGradient>
    <linearGradient
       id="l"
       x1="25.4"
       xlink:href="#b"
       gradientUnits="userSpaceOnUse"
       y1="3.82"
       gradientTransform="matrix(1.053,0,0,1,78.21,0)"
       x2="25.46"
       y2="9.32" />
    <radialGradient
       id="d"
       gradientUnits="userSpaceOnUse"
       cy="45.3"
       cx="24.65"
       gradientTransform="matrix(0.913,0,0,0.130869,81.92,39.4037)"
       r="21">
      <stop
         stop-color="#646459"
         offset="0"
         id="stop43" />
      <stop
         stop-opacity="0"
         stop-color="#646459"
         offset="1"
         id="stop45" />
    </radialGradient>
    <linearGradient
       inkscape:collect="always"
       id="linearGradient2812">
      <stop
         style="stop-color:#000000;stop-opacity:1;"
         offset="0"
         id="stop2814" />
      <stop
         style="stop-color:#000000;stop-opacity:0;"
         offset="1"
         id="stop2816" />
    </linearGradient>
    <linearGradient
       inkscape:collect="always"
       xlink:href="#linearGradient2758"
       id="linearGradient2764"
       x1="35"
       y1="47"
       x2="0"
       y2="-6"
       gradientUnits="userSpaceOnUse"
       gradientTransform="matrix(0.94234956,0,0,1.0500468,-0.182303,0.18945987)" />
    <linearGradient
       id="linearGradient2758">
      <stop
         style="stop-color:#ffffff;stop-opacity:0.58823532;"
         offset="0"
         id="stop2760" />
      <stop
         style="stop-color:#ffffff;stop-opacity:0;"
         offset="1"
         id="stop2762" />
    </linearGradient>
    <linearGradient
       inkscape:collect="always"
       xlink:href="#linearGradient5459"
       id="linearGradient10764"
       gradientUnits="userSpaceOnUse"
       x1="23"
       y1="36.5"
       x2="25"
       y2="36.5"
       gradientTransform="matrix(0.52502339,0,0,1.0500468,9.308505,0.18945987)" />
    <linearGradient
       inkscape:collect="always"
       id="linearGradient5459">
      <stop
         style="stop-color:#e9b96e;stop-opacity:1;"
         offset="0"
         id="stop5461" />
      <stop
         style="stop-color:#e9b96e;stop-opacity:0;"
         offset="1"
         id="stop5463" />
    </linearGradient>
    <linearGradient
       inkscape:collect="always"
       xlink:href="#linearGradient2812"
       id="linearGradient2818"
       x1="31.668297"
       y1="35.908379"
       x2="35.556171"
       y2="44.257706"
       gradientUnits="userSpaceOnUse"
       gradientTransform="matrix(0.98221417,0,-0.45736929,0.88034977,-1.69799,2.1790223)" />
    <linearGradient
       inkscape:collect="always"
       xlink:href="#linearGradient2812"
       id="linearGradient2822"
       gradientUnits="userSpaceOnUse"
       gradientTransform="matrix(-0.98221417,0,0.45736929,0.88034977,46.566167,2.1790223)"
       x1="31.668297"
       y1="35.908379"
       x2="35.556171"
       y2="44.257706" />
    <linearGradient
       inkscape:collect="always"
       xlink:href="#i"
       id="linearGradient202"
       gradientUnits="userSpaceOnUse"
       x1="25.68"
       y1="12.17"
       x2="25.69"
       y2="-.2" />
  </defs>
  <path
     inkscape:connector-curvature="0"
     id="rect5858"
     d="m 28.156204,28.081994 h -5.218169 l 10.497728,19.950887 h 5.21817 z"
     style="fill:#c17d11;fill-opacity:1;stroke:#8f5902;stroke-width:1.05004656;stroke-linecap:round;stroke-linejoin:round;stroke-miterlimit:4;stroke-dashoffset:1.96000016;stroke-opacity:1" />
  <path
     inkscape:connector-curvature="0"
     id="rect5860"
     d="m 27.665082,29.132042 h -3.1309 l 9.392706,17.850797 h 3.1309 z"
     style="fill:none;fill-opacity:1;stroke:#e9b96e;stroke-width:1.05004644;stroke-linecap:round;stroke-linejoin:miter;stroke-miterlimit:4;stroke-dashoffset:1.96000016;stroke-opacity:1" />
  <path
     inkscape:connector-curvature="0"
     sodipodi:nodetypes="ccccc"
     id="path2820"
     d="m 32.934556,37.991143 h -4.200187 l 5.250233,9.450421 h 4.200187 z"
     style="opacity:0.6;fill:url(#linearGradient2822);fill-opacity:1;stroke:none;stroke-width:1.11620688;stroke-linecap:round;stroke-linejoin:round;stroke-miterlimit:4;stroke-dashoffset:1.96000016;stroke-opacity:1" />
  <path
     inkscape:connector-curvature="0"
     id="rect5467"
     d="m 16.690899,28.015699 h 5.218167 L 11.411338,47.966588 H 6.19317 Z"
     style="fill:#c17d11;fill-opacity:1;stroke:#8f5902;stroke-width:1.05004656;stroke-linecap:round;stroke-linejoin:round;stroke-miterlimit:4;stroke-dashoffset:1.96000016;stroke-opacity:1" />
  <path
     inkscape:connector-curvature="0"
     id="rect5469"
     d="m 17.182016,29.065748 h 3.1309 L 10.920211,46.916544 H 7.78931 Z"
     style="fill:none;fill-opacity:1;stroke:#e9b96e;stroke-width:1.05004644;stroke-linecap:round;stroke-linejoin:miter;stroke-miterlimit:4;stroke-dashoffset:1.96000016;stroke-opacity:1" />
  <path
     inkscape:connector-curvature="0"
     sodipodi:nodetypes="ccccc"
     style="opacity:0.6;fill:url(#linearGradient2818);fill-opacity:1;stroke:none;stroke-width:1.11620688;stroke-linecap:round;stroke-linejoin:round;stroke-miterlimit:4;stroke-dashoffset:1.96000016;stroke-opacity:1"
     d="m 11.933621,37.991143 h 4.200187 l -5.250234,9.450421 H 6.683387 Z"
     id="path2233" />
  <path
     inkscape:connector-curvature="0"
     id="rect4681"
     d="m 20.859018,31.165839 h 3.15014 v 14.700655 h -3.15014 z"
     style="fill:#c17d11;fill-opacity:1;stroke:#8f5902;stroke-width:1.0500468;stroke-linecap:round;stroke-linejoin:round;stroke-miterlimit:4;stroke-dashoffset:1.96000016;stroke-opacity:1" />
  <path
     inkscape:connector-curvature="0"
     id="rect5076"
     d="m 21.384041,31.690862 h 1.050048 V 45.34147 h -1.050048 z"
     style="fill:url(#linearGradient10764);fill-opacity:1;stroke:none;stroke-width:1.0500468;stroke-linecap:round;stroke-linejoin:round;stroke-miterlimit:4;stroke-dashoffset:1.96000016;stroke-opacity:1" />
  <path
     inkscape:connector-curvature="0"
     id="path4675"
     d="M 3.008224,2.8145767 H 41.859953 V 37.466121 H 3.008224 Z"
     style="fill:#d3d7cf;fill-opacity:1;stroke:#888a85;stroke-width:1.0500468;stroke-linecap:round;stroke-linejoin:round;stroke-miterlimit:4;stroke-dashoffset:1.96000016;stroke-opacity:1" />
  <path
     inkscape:connector-curvature="0"
     id="rect2174"
     d="M 3.008224,2.8145766 H 41.859953 V 35.366025 H 3.008224 Z"
     style="fill:#eeeeec;fill-opacity:1;stroke:#888a85;stroke-width:1.0500468;stroke-linecap:round;stroke-linejoin:round;stroke-miterlimit:4;stroke-dashoffset:1.96000016;stroke-opacity:1" />
  <path
     inkscape:connector-curvature="0"
     id="path2177"
     d="M 4.05827,3.8646235 H 40.809903 V 34.31598 H 4.05827 Z"
     style="fill:url(#linearGradient2764);fill-opacity:1;stroke:#ffffff;stroke-width:1.05004656;stroke-linecap:round;stroke-linejoin:round;stroke-miterlimit:4;stroke-dashoffset:1.96000016;stroke-opacity:1" />
  <g
     id="g874"
     transform="matrix(0.07229889,0,0,0.07229889,4.250366,17.229306)">
    <circle
       r="92.093903"
       cy="31.343292"
       cx="248.17273"
       id="path860"
       style="opacity:1;fill:#000000;fill-opacity:1;stroke:none;stroke-width:2;stroke-linecap:round;stroke-linejoin:round;stroke-miterlimit:4;stroke-dasharray:none;stroke-dashoffset:0;stroke-opacity:1;paint-order:fill markers stroke" />
    <circle
       r="65.09449"
       cy="31.713173"
       cx="247.06317"
       id="path862"
       style="opacity:1;fill:#ffffff;fill-opacity:1;stroke:none;stroke-width:2;stroke-linecap:round;stroke-linejoin:round;stroke-miterlimit:4;stroke-dasharray:none;stroke-dashoffset:0;stroke-opacity:1;paint-order:fill markers stroke" />
    <circle
       r="39.204636"
       cy="28.485344"
       cx="247.06319"
       id="path864"
       style="opacity:1;fill:#000000;fill-opacity:1;stroke:none;stroke-width:2;stroke-linecap:round;stroke-linejoin:round;stroke-miterlimit:4;stroke-dasharray:none;stroke-dashoffset:0;stroke-opacity:1;paint-order:fill markers stroke" />
    <ellipse
       transform="rotate(-44.806584)"
       ry="18.021868"
       rx="8.0682554"
       cy="190.27832"
       cx="178.38634"
       id="path866"
       style="opacity:1;fill:#ffffff;fill-opacity:1;stroke:none;stroke-width:2;stroke-linecap:round;stroke-linejoin:round;stroke-miterlimit:4;stroke-dasharray:none;stroke-dashoffset:0;stroke-opacity:1;paint-order:fill markers stroke" />
  </g>
  <g
     id="g1126"
     transform="matrix(1.0676593,0,0,1.2824186,-3.240332,-6.8100327)">
    <path
       sodipodi:nodetypes="csczczczczczc"
       inkscape:connector-curvature="0"
       id="path852"
       d="m 7.0159997,20.615739 c 0,0 6.2735773,-9.937957 17.1129073,-10.033461 10.460632,-0.09217 16.874182,10.004027 16.874182,10.004027 0,0 -2.803939,2.186402 -4.282305,3.101344 -1.478365,0.914941 -4.587892,2.388306 -4.587892,2.388306 0,0 2.40382,-1.612799 3.481488,-2.526778 1.077667,-0.913979 2.972175,-2.93423 2.972175,-2.93423 0,0 -7.495743,-4.441819 -14.355786,-4.469467 -6.860042,-0.02765 -14.7994742,4.467608 -14.7994742,4.467608 0,0 1.7961662,1.967077 2.8733412,2.884228 1.077176,0.91715 3.58638,2.578639 3.58638,2.578639 0,0 -3.570794,-1.762154 -5.048683,-2.679176 -1.4778895,-0.917023 -3.8263333,-2.78104 -3.8263333,-2.78104 z"
       style="fill:#000000;stroke:none;stroke-width:0.06885302px;stroke-linecap:butt;stroke-linejoin:miter;stroke-opacity:1" />
    <path
       style="fill:#d3d7cf;stroke:#000000;stroke-width:0.42730576;stroke-linecap:butt;stroke-linejoin:miter;stroke-miterlimit:4;stroke-dasharray:none;stroke-opacity:1"
       d="m 9.4312947,20.613087 c 0,0 5.2607783,-9.780857 14.8270623,-9.318334 9.566286,0.462522 14.328197,9.320194 14.328197,9.320194 0,0 -6.815461,-4.197771 -14.28645,-4.227054 -7.470989,-0.02928 -14.8688093,4.225194 -14.8688093,4.225194 z"
       id="path837"
       inkscape:connector-curvature="0"
       sodipodi:nodetypes="czczc" />
  </g>
  <ellipse
     style="opacity:1;fill:#ef2929;fill-opacity:1;stroke:#000000;stroke-width:0.33789569;stroke-linecap:round;stroke-linejoin:round;stroke-miterlimit:4;stroke-dasharray:none;stroke-dashoffset:0;stroke-opacity:1;paint-order:fill markers stroke"
     id="ellipse847"
     cx="14.970591"
     cy="13.353573"
     rx="1.5373452"
     ry="1.2010509" />
  <ellipse
     style="opacity:1;fill:#ef2929;fill-opacity:1;stroke:#000000;stroke-width:0.33789569;stroke-linecap:round;stroke-linejoin:round;stroke-miterlimit:4;stroke-dasharray:none;stroke-dashoffset:0;stroke-opacity:1;paint-order:fill markers stroke"
     id="ellipse847-3"
     cx="21.298834"
     cy="10.976113"
     rx="1.5373452"
     ry="1.2010509"
     transform="rotate(-3.004836)" />
  <ellipse
     style="opacity:1;fill:#ef2929;fill-opacity:1;stroke:#000000;stroke-width:0.33789569;stroke-linecap:round;stroke-linejoin:round;stroke-miterlimit:4;stroke-dasharray:none;stroke-dashoffset:0;stroke-opacity:1;paint-order:fill markers stroke"
     id="ellipse847-3-6"
     cx="32.297783"
     cy="-4.4552274"
     rx="1.5373452"
     ry="1.2010509"
     transform="rotate(31.500263)" />
  <ellipse
     style="opacity:1;fill:#ef2929;fill-opacity:1;stroke:#000000;stroke-width:0.28801563;stroke-linecap:round;stroke-linejoin:round;stroke-miterlimit:4;stroke-dasharray:none;stroke-dashoffset:0;stroke-opacity:1;paint-order:fill markers stroke"
     id="ellipse847-3-6-7"
     cx="-27.726746"
     cy="-3.6594076"
     rx="1.3104028"
     ry="1.0237522"
     transform="rotate(-161.24238)" />
  <ellipse
     style="opacity:1;fill:#ef2929;fill-opacity:1;stroke:#000000;stroke-width:0.28801563;stroke-linecap:round;stroke-linejoin:round;stroke-miterlimit:4;stroke-dasharray:none;stroke-dashoffset:0;stroke-opacity:1;paint-order:fill markers stroke"
     id="ellipse847-3-6-7-5"
     cx="-22.240765"
     cy="-5.5620718"
     rx="1.3104028"
     ry="1.0237522"
     transform="rotate(-161.24238)" />
  <g
     id="g234"
     transform="matrix(0.59830508,0,0,0.59830508,-26.752359,19.443686)">
    <path
       inkscape:connector-curvature="0"
       style="fill:url(#d);stroke-width:1.03751004"
       id="path50"
       d="m 123.60758,45.26333 a 19.18213,2.738817 0 1 1 -38.36426,0 19.18213,2.738817 0 1 1 38.36426,0" />
    <rect
       style="fill:url(#n);stroke:#714c16"
       id="rect52"
       x="84.459999"
       y="4.5"
       width="39"
       height="41"
       rx="1.39" />
    <rect
       style="fill:url(#m);stroke:#888a85"
       id="rect54"
       x="88.529999"
       y="6.5300002"
       width="30.950001"
       height="35.98"
       rx="0.56999999" />
    <rect
       style="fill:#5c5c5c"
       y="0"
       id="rect56"
       x="98"
       width="12"
       height="4"
       rx="1" />
    <rect
       style="opacity:0.4;fill:none;stroke:#2e3436;stroke-width:0.80000001"
       x="91.699997"
       y="14.4"
       width="3.7"
       height="3.7"
       rx="1"
       id="a" />
    <use
       height="100%"
       width="100%"
       x="0"
       id="use59"
       xlink:href="#a"
       y="6.48" />
    <rect
       style="opacity:0.5;fill:none;stroke:#2e3436;stroke-width:0.80000001"
       id="rect61"
       x="91.639999"
       y="34.369999"
       width="5"
       height="5"
       rx="1" />
    <use
       height="100%"
       width="100%"
       x="0"
       id="use63"
       xlink:href="#a"
       y="12.96" />
    <g
       style="fill:none"
       transform="translate(80)"
       id="g69">
      <path
         inkscape:connector-curvature="0"
         style="stroke:url(#g)"
         id="path65"
         d="m 9.52,7.47 h 29 v 34 h -29 z" />
      <rect
         style="stroke:#c68827"
         id="rect67"
         x="5.4400001"
         y="5.4299998"
         width="37.099998"
         height="39.099998"
         rx="0.5" />
    </g>
    <rect
       style="opacity:0.11000001;stroke:#000000"
       id="rect71"
       x="94.790001"
       y="4.4699998"
       width="18.950001"
       height="7"
       rx="1.39" />
    <rect
       style="fill:url(#l);stroke:#5c5c5c"
       id="rect73"
       x="94.529999"
       y="3.5"
       width="18.950001"
       height="7"
       rx="1.39" />
    <rect
       style="fill:url(#f)"
       id="rect75"
       x="99.099998"
       y="1.21"
       width="9.6999998"
       height="3.5799999"
       rx="0.33000001" />
    <rect
       style="fill:url(#e)"
       id="rect77"
       x="94.949997"
       y="3.9400001"
       width="18.1"
       height="6.1900001"
       rx="1" />
    <path
       inkscape:connector-curvature="0"
       style="opacity:0.5;fill:url(#k)"
       id="path79"
       d="m 119,36.3 0.04,5.81 -8.5,-0.04 8.46,-5.77" />
    <path
       inkscape:connector-curvature="0"
       style="fill:url(#j);stroke:#868a84"
       id="path81"
       d="m 110.1,42.1 c 1.79,0.16 8.99,-4.37 9.48,-8.39 -1.56,2.42 -4.96,1.97 -9.1,2.13 0,0 0.39,5.76 -0.42,6.26 z" />
    <g
       style="fill:none"
       transform="translate(80)"
       id="g87">
      <path
         inkscape:connector-curvature="0"
         style="opacity:0.32000002;stroke:url(#linearGradient202)"
         id="path83"
         d="M 19.47,1.47 V 1.5 h -0.03 v 2.88 c 0,0.001 0.03,0.03 0.03,0.03 v 0.03 h -3.59 c -0.04,0 -0.1,0.02 -0.13,0.03 -0.14,0.06 -0.27,0.2 -0.31,0.34 -10e-4,0.04 0,0.11 0,0.16 v 4.22 c 0,0.03 0.02,0.09 0.03,0.12 10e-4,0.02 0.02,0.07 0.03,0.09 0,10e-4 0.03,0.03 0.03,0.03 0.02,0.03 0.07,0.07 0.09,0.09 0.02,0.001 0.05,0.02 0.07,0.03 0.001,10e-4 0.04,0.03 0.06,0.03 0.03,10e-4 0.09,0.03 0.13,0.03 H 32.1 C 32.14,9.609 32.2,9.59 32.23,9.58 32.25,9.579 32.28,9.56 32.29,9.55 32.31,9.549 32.34,9.53 32.36,9.52 L 32.45,9.43 C 32.45,9.429 32.48,9.4 32.48,9.4 32.481,9.38 32.5,9.33 32.51,9.31 32.511,9.28 32.54,9.22 32.54,9.19 V 4.97 c 0,-0.04 10e-4,-0.12 0,-0.16 C 32.5,4.67 32.37,4.52 32.23,4.47 32.2,4.469 32.14,4.44 32.1,4.44 H 28.51 V 4.41 L 28.54,4.38 V 1.5 H 28.51 V 1.47 h -9.03 c 0,0 -0.03,0 -0.03,0 z" />
      <path
         inkscape:connector-curvature="0"
         style="opacity:0.37000002;stroke:url(#h)"
         id="path85"
         d="m 31.51,40.69 c 1.37,-0.69 4.53,-2.6 5.83,-4.48 -1.79,0.37 -2.99,0.58 -5.73,0.69 0,0 0.09,3 -0.1,3.79 z" />
    </g>
    <g
       style="opacity:0.17000002"
       transform="translate(80)"
       id="g99">
      <path
         inkscape:connector-curvature="0"
         id="path89"
         d="M 19.76,15 H 36.1 v 2 H 19.76 Z" />
      <path
         inkscape:connector-curvature="0"
         id="path91"
         d="m 19.76,19 h 15.56 v 2 H 19.76 Z" />
      <path
         inkscape:connector-curvature="0"
         id="path93"
         d="m 19.76,23 h 14 v 2 h -14 z" />
      <path
         inkscape:connector-curvature="0"
         id="path95"
         d="M 19.76,27 H 36.1 v 2 H 19.76 Z" />
      <path
         inkscape:connector-curvature="0"
         id="path97"
         d="m 19.76,31 h 10.12 v 2 H 19.76 Z" />
    </g>
    <path
       style="fill:#4e9a06;stroke-width:0.29249957"
       inkscape:connector-curvature="0"
       d="m 94.12244,15.84133 c 1.141428,-1.83418 1.385248,-1.903035 2.631504,-3.49549 0.38544,-0.43071 1.494748,-1.508657 2.011296,-1.302971 0.394492,0.157341 -0.256902,0.68562 -0.44676,0.92881 -1.67024,2.1389 -2.656324,3.59804 -4.2048,5.82777 -0.238564,0.343396 -0.621376,0.443602 -0.994844,0.363613 -0.3796,-0.08204 -0.60444,-0.78524 -0.73,-1.11926 -0.186997,-0.4981 -0.65846,-1.119553 -0.658168,-1.652813 1.3e-4,-0.43071 0.225599,-0.646065 0.605608,-0.675365 0.4891,-0.03765 0.671016,0.64167 0.814388,1.042201 0.27156,0.75594 0.32996,1.11633 0.97236,0.08497 z"
       id="c" />
    <use
       height="100%"
       width="100%"
       x="0"
       id="use102"
       xlink:href="#c"
       y="6.46" />
    <use
       height="100%"
       width="100%"
       x="0"
       id="use104"
       xlink:href="#c"
       y="12.92" />
    <use
       height="100%"
       width="100%"
       y="0"
       x="0"
       style="stroke:#555753;stroke-width:0.30000001"
       id="use106"
       transform="matrix(2.076,0,0,2.076,-99.8,1.792)"
       xlink:href="#c" />
  </g>
</svg>
