<?xml version="1.0" encoding="UTF-8" standalone="no"?>
<svg
   xmlns:dc="http://purl.org/dc/elements/1.1/"
   xmlns:cc="http://creativecommons.org/ns#"
   xmlns:rdf="http://www.w3.org/1999/02/22-rdf-syntax-ns#"
   xmlns:svg="http://www.w3.org/2000/svg"
   xmlns="http://www.w3.org/2000/svg"
   xmlns:sodipodi="http://sodipodi.sourceforge.net/DTD/sodipodi-0.dtd"
   xmlns:inkscape="http://www.inkscape.org/namespaces/inkscape"
   inkscape:export-ydpi="150"
   inkscape:export-xdpi="150"
   inkscape:export-filename="/home/luca/github/TrachomaFinder/docs/images/app_icon_big.png"
   inkscape:version="1.0 (6e3e5246a0, 2020-05-07)"
   sodipodi:docname="app-icon2.svg"
   viewBox="0 0 64 64"
   height="64"
   width="64"
   id="svg2"
   version="1.1">
  <metadata
     id="metadata8">
    <rdf:RDF>
      <cc:Work
         rdf:about="">
        <dc:format>image/svg+xml</dc:format>
        <dc:type
           rdf:resource="http://purl.org/dc/dcmitype/StillImage" />
        <dc:title />
      </cc:Work>
    </rdf:RDF>
  </metadata>
  <defs
     id="defs6">
    <clipPath
       id="clipPath18"
       clipPathUnits="userSpaceOnUse">
      <path
         inkscape:connector-curvature="0"
         id="path16"
         d="M 16.007,48 C 7.203,48 0,40.797 0,31.994 v 0 -15.987 C 0,7.203 7.203,0 16.007,0 V 0 H 31.993 C 40.797,0 48,7.203 48,16.007 v 0 15.987 C 48,40.797 40.797,48 31.993,48 v 0 z" />
    </clipPath>
    <linearGradient
       id="linearGradient30"
       spreadMethod="pad"
       gradientTransform="matrix(0,-48,-48,0,24,48)"
       gradientUnits="userSpaceOnUse"
       y2="0"
       x2="1"
       y1="0"
       x1="0">
      <stop
         id="stop24"
         offset="0"
         style="stop-opacity:1;stop-color:#d1b9f1" />
      <stop
         id="stop26"
         offset="0.22524899"
         style="stop-opacity:1;stop-color:#c47cc8" />
      <stop
         id="stop28"
         offset="1"
         style="stop-opacity:1;stop-color:#c45673" />
    </linearGradient>
  </defs>
  <sodipodi:namedview
     inkscape:document-rotation="0"
     inkscape:current-layer="svg2"
     inkscape:window-maximized="1"
     inkscape:window-y="27"
     inkscape:window-x="72"
     inkscape:cy="32"
     inkscape:cx="32"
     inkscape:zoom="4.6514368"
     inkscape:guide-bbox="true"
     showguides="true"
     showgrid="false"
     id="namedview4"
     inkscape:window-height="1016"
     inkscape:window-width="1848"
     inkscape:pageshadow="2"
     inkscape:pageopacity="0"
     guidetolerance="10"
     gridtolerance="10"
     objecttolerance="10"
     borderopacity="1"
     bordercolor="#666666"
     pagecolor="#ffffff" />
  <g
     id="g12"
     transform="matrix(1.3333333,0,0,-1.3333333,0.0341312,63.925013)">
    <g
       clip-path="url(#clipPath18)"
       id="g14">
      <g
         id="g20">
        <g
           id="g22">
          <path
             inkscape:connector-curvature="0"
             id="path32"
             style="fill:url(#linearGradient30);stroke:none"
             d="M 16.007,48 C 7.203,48 0,40.797 0,31.994 v 0 -15.987 C 0,7.203 7.203,0 16.007,0 V 0 H 31.993 C 40.797,0 48,7.203 48,16.007 v 0 15.987 C 48,40.797 40.797,48 31.993,48 v 0 z" />
        </g>
      </g>
    </g>
  </g>
  <g
     style="fill:#ad7fa8;fill-opacity:1"
     transform="matrix(1.3333333,0,0,-1.3333333,3.2841312,42.063014)"
     id="g42">
    <path
       inkscape:connector-curvature="0"
       id="path44"
       style="fill:#ad7fa8;fill-opacity:1;fill-rule:nonzero;stroke:none"
       d="m 0,0 v 15.27 c 0,7.677 6.281,13.959 13.958,13.959 h 14.833 c 7.678,0 13.959,-6.282 13.959,-13.959 V 0 c 0,-7.678 -6.281,-13.959 -13.959,-13.959 H 13.958 C 6.281,-13.959 0,-7.678 0,0" />
  </g>
  <g
     transform="matrix(1.0676666,0,0,1.0676666,-2.1448757,-2.0020292)"
     id="g865">
    <g
       transform="matrix(0.13411128,0,0,0.13411128,-1.4021991,27.238117)"
       id="g874">
      <circle
         style="opacity:1;fill:#000000;fill-opacity:1;stroke:none;stroke-width:2;stroke-linecap:round;stroke-linejoin:round;stroke-miterlimit:4;stroke-dasharray:none;stroke-dashoffset:0;stroke-opacity:1;paint-order:fill markers stroke"
         id="path860"
         cx="248.17273"
         cy="31.343292"
         r="92.093903" />
      <circle
         style="opacity:1;fill:#ffffff;fill-opacity:1;stroke:none;stroke-width:2;stroke-linecap:round;stroke-linejoin:round;stroke-miterlimit:4;stroke-dasharray:none;stroke-dashoffset:0;stroke-opacity:1;paint-order:fill markers stroke"
         id="path862"
         cx="247.06317"
         cy="31.713173"
         r="65.09449" />
      <circle
         style="opacity:1;fill:#000000;fill-opacity:1;stroke:none;stroke-width:2;stroke-linecap:round;stroke-linejoin:round;stroke-miterlimit:4;stroke-dasharray:none;stroke-dashoffset:0;stroke-opacity:1;paint-order:fill markers stroke"
         id="path864"
         cx="247.06319"
         cy="28.485344"
         r="39.204636" />
      <ellipse
         style="opacity:1;fill:#ffffff;fill-opacity:1;stroke:none;stroke-width:2;stroke-linecap:round;stroke-linejoin:round;stroke-miterlimit:4;stroke-dasharray:none;stroke-dashoffset:0;stroke-opacity:1;paint-order:fill markers stroke"
         id="path866"
         cx="178.38634"
         cy="190.27832"
         rx="8.0682554"
         ry="18.021868"
         transform="rotate(-44.806584)" />
    </g>
    <path
       sodipodi:nodetypes="csczczczczczc"
       inkscape:connector-curvature="0"
       id="path852"
       d="m 6.2804491,34.041112 c 0,0 9.3833829,-19.35706 25.5957539,-19.543083 15.645954,-0.179524 25.238692,19.485752 25.238692,19.485752 0,0 -4.193847,4.258655 -6.405037,6.04077 -2.21119,1.782115 -6.862104,4.651922 -6.862104,4.651922 0,0 3.595389,-3.141397 5.207257,-4.921637 1.611865,-1.78024 4.445477,-5.715265 4.445477,-5.715265 0,0 -11.211373,-9.266218 -21.471928,-9.320071 -10.260557,-0.05385 -22.1355559,9.31645 -22.1355559,9.31645 0,0 2.6865219,3.831455 4.2976519,5.617872 1.611131,1.786417 5.364146,5.022651 5.364146,5.022651 0,0 -5.340836,-3.432309 -7.551312,-5.218476 C 9.7930133,37.671828 6.2804491,34.041112 6.2804491,34.041112 Z"
       style="fill:#000000;stroke:none;stroke-width:0.1175212px;stroke-linecap:butt;stroke-linejoin:miter;stroke-opacity:1" />
  </g>
</svg>
