<?xml version="1.0" encoding="UTF-8" standalone="no"?>
<!-- Generator: Adobe Illustrator 16.0.0, SVG Export Plug-In . SVG Version: 6.00 Build 0)  -->

<svg
   xmlns:dc="http://purl.org/dc/elements/1.1/"
   xmlns:cc="http://creativecommons.org/ns#"
   xmlns:rdf="http://www.w3.org/1999/02/22-rdf-syntax-ns#"
   xmlns:svg="http://www.w3.org/2000/svg"
   xmlns="http://www.w3.org/2000/svg"
   xmlns:sodipodi="http://sodipodi.sourceforge.net/DTD/sodipodi-0.dtd"
   xmlns:inkscape="http://www.inkscape.org/namespaces/inkscape"
   version="1.1"
   id="Capa_1"
   x="0px"
   y="0px"
   width="48"
   height="48"
   viewBox="0 0 48 48"
   xml:space="preserve"
   sodipodi:docname="Eye.svg"
   inkscape:version="0.92.3 (2405546, 2018-03-11)"><metadata
   id="metadata45"><rdf:RDF><cc:Work
       rdf:about=""><dc:format>image/svg+xml</dc:format><dc:type
         rdf:resource="http://purl.org/dc/dcmitype/StillImage" /><dc:title></dc:title></cc:Work></rdf:RDF></metadata><defs
   id="defs43" /><sodipodi:namedview
   pagecolor="#ffffff"
   bordercolor="#666666"
   borderopacity="1"
   objecttolerance="10"
   gridtolerance="10"
   guidetolerance="10"
   inkscape:pageopacity="0"
   inkscape:pageshadow="2"
   inkscape:window-width="1853"
   inkscape:window-height="1016"
   id="namedview41"
   showgrid="false"
   inkscape:zoom="17.583333"
   inkscape:cx="24"
   inkscape:cy="24"
   inkscape:window-x="67"
   inkscape:window-y="27"
   inkscape:window-maximized="1"
   inkscape:current-layer="g6" />
<g
   id="g8"
   transform="translate(0,-445.763)">
	<g
   id="g6">
		
		
	<g
   id="g976"
   transform="matrix(0.0937985,0,0,0.0937985,0.73821567,446.57395)"><g
     transform="translate(0,210)"
     id="g874"><circle
       style="opacity:1;fill:#000000;fill-opacity:1;stroke:none;stroke-width:2;stroke-linecap:round;stroke-linejoin:round;stroke-miterlimit:4;stroke-dasharray:none;stroke-dashoffset:0;stroke-opacity:1;paint-order:fill markers stroke"
       id="path860"
       cx="248.17273"
       cy="31.343292"
       r="92.093903" /><circle
       style="opacity:1;fill:#ffffff;fill-opacity:1;stroke:none;stroke-width:2;stroke-linecap:round;stroke-linejoin:round;stroke-miterlimit:4;stroke-dasharray:none;stroke-dashoffset:0;stroke-opacity:1;paint-order:fill markers stroke"
       id="path862"
       cx="247.06317"
       cy="31.713173"
       r="65.09449" /><circle
       style="opacity:1;fill:#000000;fill-opacity:1;stroke:none;stroke-width:2;stroke-linecap:round;stroke-linejoin:round;stroke-miterlimit:4;stroke-dasharray:none;stroke-dashoffset:0;stroke-opacity:1;paint-order:fill markers stroke"
       id="path864"
       cx="247.06319"
       cy="28.485344"
       r="39.204636" /><ellipse
       style="opacity:1;fill:#ffffff;fill-opacity:1;stroke:none;stroke-width:2;stroke-linecap:round;stroke-linejoin:round;stroke-miterlimit:4;stroke-dasharray:none;stroke-dashoffset:0;stroke-opacity:1;paint-order:fill markers stroke"
       id="path866"
       cx="178.38634"
       cy="190.27832"
       rx="8.0682554"
       ry="18.021868"
       transform="rotate(-44.806584)" /></g><path
     sodipodi:nodetypes="csczczczczczc"
     inkscape:connector-curvature="0"
     id="path852"
     d="m 0,260.72649 c 0,0 91.115508,-144.33581 248.54259,-145.72289 C 400.46958,113.66498 493.618,260.299 493.618,260.299 c 0,0 -40.72354,31.75464 -62.19487,45.04297 C 409.9518,318.6303 364.79,340.029 364.79,340.029 c 0,0 34.91234,-23.42381 50.56405,-36.69816 C 431.00576,290.05649 458.521,260.715 458.521,260.715 c 0,0 -108.86585,-83.91391 -208.49899,-84.31546 C 150.38887,175.99799 35.079,260.688 35.079,260.688 c 0,0 26.086959,28.56922 41.731529,41.88963 15.64457,13.32041 52.087471,37.45137 52.087471,37.45137 0,0 -51.861115,-25.59299 -73.325521,-38.91154 C 34.108073,287.7989 0,260.72649 0,260.72649 Z"
     style="fill:#000000;stroke:none;stroke-width:1px;stroke-linecap:butt;stroke-linejoin:miter;stroke-opacity:1" /></g></g>
</g>
<g
   id="g10"
   transform="translate(0,-445.763)">
</g>
<g
   id="g12"
   transform="translate(0,-445.763)">
</g>
<g
   id="g14"
   transform="translate(0,-445.763)">
</g>
<g
   id="g16"
   transform="translate(0,-445.763)">
</g>
<g
   id="g18"
   transform="translate(0,-445.763)">
</g>
<g
   id="g20"
   transform="translate(0,-445.763)">
</g>
<g
   id="g22"
   transform="translate(0,-445.763)">
</g>
<g
   id="g24"
   transform="translate(0,-445.763)">
</g>
<g
   id="g26"
   transform="translate(0,-445.763)">
</g>
<g
   id="g28"
   transform="translate(0,-445.763)">
</g>
<g
   id="g30"
   transform="translate(0,-445.763)">
</g>
<g
   id="g32"
   transform="translate(0,-445.763)">
</g>
<g
   id="g34"
   transform="translate(0,-445.763)">
</g>
<g
   id="g36"
   transform="translate(0,-445.763)">
</g>
<g
   id="g38"
   transform="translate(0,-445.763)">
</g>
</svg>