<?xml version="1.0" encoding="UTF-8" standalone="no"?>
<!-- Created with Inkscape (http://www.inkscape.org/) -->

<svg
   xmlns:dc="http://purl.org/dc/elements/1.1/"
   xmlns:cc="http://creativecommons.org/ns#"
   xmlns:rdf="http://www.w3.org/1999/02/22-rdf-syntax-ns#"
   xmlns:svg="http://www.w3.org/2000/svg"
   xmlns="http://www.w3.org/2000/svg"
   xmlns:xlink="http://www.w3.org/1999/xlink"
   xmlns:sodipodi="http://sodipodi.sourceforge.net/DTD/sodipodi-0.dtd"
   xmlns:inkscape="http://www.inkscape.org/namespaces/inkscape"
   width="48"
   height="48"
   id="svg1306"
   sodipodi:version="0.32"
   inkscape:version="0.92.3 (2405546, 2018-03-11)"
   sodipodi:docname="Relink-images.svg"
   inkscape:export-filename="/home/luca/Dropbox/MATLAB scripts/FollicleFinder/Follicle Finder_resources/48px-relink-images.png"
   inkscape:export-xdpi="96"
   inkscape:export-ydpi="96"
   version="1.0"
   inkscape:output_extension="org.inkscape.output.svg.inkscape">
  <defs
     id="defs1308">
    <linearGradient
       inkscape:collect="always"
       id="linearGradient3276">
      <stop
         style="stop-color:white;stop-opacity:1;"
         offset="0"
         id="stop3278" />
      <stop
         style="stop-color:white;stop-opacity:0;"
         offset="1"
         id="stop3280" />
    </linearGradient>
    <linearGradient
       id="linearGradient3269">
      <stop
         id="stop3271"
         offset="0"
         style="stop-color:#fecb81;stop-opacity:1" />
      <stop
         id="stop3273"
         offset="1"
         style="stop-color:#fcaf3e;stop-opacity:1" />
    </linearGradient>
    <linearGradient
       inkscape:collect="always"
       id="linearGradient3188">
      <stop
         style="stop-color:black;stop-opacity:1;"
         offset="0"
         id="stop3190" />
      <stop
         style="stop-color:black;stop-opacity:0;"
         offset="1"
         id="stop3192" />
    </linearGradient>
    <linearGradient
       inkscape:collect="always"
       id="linearGradient4616">
      <stop
         style="stop-color:#2e3436;stop-opacity:1;"
         offset="0"
         id="stop4618" />
      <stop
         style="stop-color:#2e3436;stop-opacity:0;"
         offset="1"
         id="stop4620" />
    </linearGradient>
    <linearGradient
       id="linearGradient4928">
      <stop
         id="stop4930"
         offset="0"
         style="stop-color:#fce94f;stop-opacity:1;" />
      <stop
         id="stop4932"
         offset="1"
         style="stop-color:#fce94f;stop-opacity:0;" />
    </linearGradient>
    <linearGradient
       inkscape:collect="always"
       id="linearGradient2065">
      <stop
         style="stop-color:#555753"
         offset="0"
         id="stop2067" />
      <stop
         style="stop-color:#fcaf3e"
         offset="1"
         id="stop2069" />
    </linearGradient>
    <radialGradient
       inkscape:collect="always"
       xlink:href="#linearGradient3188"
       id="radialGradient2268"
       gradientUnits="userSpaceOnUse"
       gradientTransform="matrix(1.068703,0,0,0.20588146,-1.9485,35.775752)"
       cx="23.8125"
       cy="43"
       fx="23.8125"
       fy="43"
       r="16.375" />
    <linearGradient
       inkscape:collect="always"
       xlink:href="#linearGradient4616"
       id="linearGradient3302"
       gradientUnits="userSpaceOnUse"
       gradientTransform="translate(-50,-5)"
       x1="25.355263"
       y1="34.006802"
       x2="25.355263"
       y2="32.409008" />
    <radialGradient
       inkscape:collect="always"
       xlink:href="#linearGradient4928"
       id="radialGradient3305"
       gradientUnits="userSpaceOnUse"
       gradientTransform="matrix(1,-1.487184e-8,1.425535e-8,0.958546,-27.2842,-3.424027)"
       cx="-6.0070167"
       cy="32.837029"
       fx="-6.0070167"
       fy="32.837029"
       r="9.90625" />
    <linearGradient
       inkscape:collect="always"
       xlink:href="#linearGradient2065"
       id="linearGradient3308"
       gradientUnits="userSpaceOnUse"
       gradientTransform="translate(-14,-5)"
       x1="-11.986486"
       y1="13.122552"
       x2="-11.986486"
       y2="29.726542" />
    <linearGradient
       inkscape:collect="always"
       xlink:href="#linearGradient3303"
       id="linearGradient2506"
       gradientUnits="userSpaceOnUse"
       x1="23.467106"
       y1="20.201925"
       x2="23.467106"
       y2="17.015749" />
    <linearGradient
       inkscape:collect="always"
       id="linearGradient3303">
      <stop
         style="stop-color:#888a85;stop-opacity:1"
         offset="0"
         id="stop3305" />
      <stop
         style="stop-color:#eeeeec;stop-opacity:1"
         offset="1"
         id="stop3307" />
    </linearGradient>
    <linearGradient
       inkscape:collect="always"
       xlink:href="#linearGradient3397"
       id="linearGradient2508"
       gradientUnits="userSpaceOnUse"
       x1="32.309578"
       y1="15.875"
       x2="44.187737"
       y2="15.875" />
    <linearGradient
       id="linearGradient3397"
       inkscape:collect="always">
      <stop
         id="stop3399"
         offset="0"
         style="stop-color:#555753;stop-opacity:1" />
      <stop
         id="stop3401"
         offset="1"
         style="stop-color:#d3d7cf;stop-opacity:0;" />
    </linearGradient>
    <linearGradient
       inkscape:collect="always"
       xlink:href="#linearGradient3377"
       id="linearGradient2510"
       gradientUnits="userSpaceOnUse"
       x1="37.124252"
       y1="13.375"
       x2="47.5625"
       y2="13.375" />
    <linearGradient
       inkscape:collect="always"
       id="linearGradient3377">
      <stop
         style="stop-color:#555753;stop-opacity:1"
         offset="0"
         id="stop3379" />
      <stop
         style="stop-color:#888a85;stop-opacity:0;"
         offset="1"
         id="stop3381" />
    </linearGradient>
    <linearGradient
       inkscape:collect="always"
       xlink:href="#linearGradient3276"
       id="linearGradient2512"
       gradientUnits="userSpaceOnUse"
       x1="37.551125"
       y1="26.433243"
       x2="46.821011"
       y2="26.433243" />
    <linearGradient
       inkscape:collect="always"
       xlink:href="#linearGradient3325"
       id="linearGradient2514"
       gradientUnits="userSpaceOnUse"
       x1="36.122208"
       y1="15.875"
       x2="47.312737"
       y2="15.875" />
    <linearGradient
       id="linearGradient3325"
       inkscape:collect="always">
      <stop
         id="stop3327"
         offset="0"
         style="stop-color:#babdb6;stop-opacity:1" />
      <stop
         id="stop3333"
         offset="1"
         style="stop-color:#d3d7cf;stop-opacity:0;" />
    </linearGradient>
    <linearGradient
       inkscape:collect="always"
       xlink:href="#linearGradient3377"
       id="linearGradient2516"
       gradientUnits="userSpaceOnUse"
       x1="41.125"
       y1="13.375"
       x2="47.5625"
       y2="13.375" />
    <radialGradient
       inkscape:collect="always"
       xlink:href="#linearGradient3417"
       id="radialGradient2518"
       gradientUnits="userSpaceOnUse"
       gradientTransform="matrix(1.027139,7.049762e-7,-2.341676e-7,0.341179,-0.857269,11.25477)"
       cx="31.349806"
       cy="14.914701"
       fx="31.349794"
       fy="14.914677"
       r="12" />
    <linearGradient
       inkscape:collect="always"
       id="linearGradient3417">
      <stop
         style="stop-color:white;stop-opacity:1"
         offset="0"
         id="stop3419" />
      <stop
         style="stop-color:#eeeeec;stop-opacity:0;"
         offset="1"
         id="stop3421" />
    </linearGradient>
    <linearGradient
       inkscape:collect="always"
       xlink:href="#linearGradient3276"
       id="linearGradient2520"
       gradientUnits="userSpaceOnUse"
       x1="35.176235"
       y1="17.240854"
       x2="47.651093"
       y2="17.240854" />
    <linearGradient
       inkscape:collect="always"
       xlink:href="#linearGradient3276"
       id="linearGradient2522"
       gradientUnits="userSpaceOnUse"
       x1="35.253414"
       y1="14.589205"
       x2="48.08326"
       y2="14.589205" />
    <linearGradient
       inkscape:collect="always"
       xlink:href="#linearGradient3276"
       id="linearGradient2524"
       gradientUnits="userSpaceOnUse"
       x1="37.551125"
       y1="26.433243"
       x2="46.258511"
       y2="26.433243" />
    <linearGradient
       inkscape:collect="always"
       xlink:href="#linearGradient3397"
       id="linearGradient2526"
       gradientUnits="userSpaceOnUse"
       x1="34.122208"
       y1="15.8125"
       x2="44.853527"
       y2="16.0625" />
    <linearGradient
       inkscape:collect="always"
       xlink:href="#linearGradient3377"
       id="linearGradient2528"
       gradientUnits="userSpaceOnUse"
       x1="37.5"
       y1="13.4375"
       x2="47.5625"
       y2="13.375" />
    <linearGradient
       inkscape:collect="always"
       xlink:href="#linearGradient3276"
       id="linearGradient2530"
       gradientUnits="userSpaceOnUse"
       x1="37.551125"
       y1="26.433243"
       x2="44.822086"
       y2="26.433243" />
    <linearGradient
       inkscape:collect="always"
       xlink:href="#linearGradient3387"
       id="linearGradient2532"
       gradientUnits="userSpaceOnUse"
       x1="29.861185"
       y1="15.875"
       x2="46.562737"
       y2="15.875" />
    <linearGradient
       id="linearGradient3387">
      <stop
         style="stop-color:#8f9388;stop-opacity:1;"
         offset="0"
         id="stop3389" />
      <stop
         id="stop3354"
         offset="0.5"
         style="stop-color:#c6cac2;stop-opacity:1;" />
      <stop
         style="stop-color:#d3d7cf;stop-opacity:0;"
         offset="1"
         id="stop3391" />
    </linearGradient>
    <radialGradient
       inkscape:collect="always"
       xlink:href="#linearGradient3417"
       id="radialGradient2536"
       gradientUnits="userSpaceOnUse"
       gradientTransform="matrix(0.751224,2.345941e-6,-7.16423e-7,0.229414,8.256114,12.93155)"
       cx="35.973373"
       cy="14.052355"
       fx="35.973362"
       fy="14.05233"
       r="12" />
    <linearGradient
       inkscape:collect="always"
       xlink:href="#linearGradient3276"
       id="linearGradient2542"
       gradientUnits="userSpaceOnUse"
       x1="37.551125"
       y1="26.433243"
       x2="44.571289"
       y2="26.433243" />
    <linearGradient
       inkscape:collect="always"
       xlink:href="#linearGradient3473"
       id="linearGradient2544"
       gradientUnits="userSpaceOnUse"
       x1="20"
       y1="24"
       x2="20"
       y2="19.121248" />
    <linearGradient
       id="linearGradient3473">
      <stop
         style="stop-color:#888a85;stop-opacity:1"
         offset="0"
         id="stop3475" />
      <stop
         id="stop3481"
         offset="0.5"
         style="stop-color:#eeeeec;stop-opacity:1;" />
      <stop
         style="stop-color:#cecec8;stop-opacity:1;"
         offset="1"
         id="stop3477" />
    </linearGradient>
    <radialGradient
       inkscape:collect="always"
       xlink:href="#linearGradient3417"
       id="radialGradient2504"
       gradientUnits="userSpaceOnUse"
       gradientTransform="matrix(0.21225,0,0,0.254807,12.01156,16.32913)"
       cx="7.0126991"
       cy="22.25555"
       fx="7.0126991"
       fy="22.25555"
       r="13" />
    <linearGradient
       inkscape:collect="always"
       xlink:href="#linearGradient3377"
       id="linearGradient227"
       gradientUnits="userSpaceOnUse"
       x1="41.125"
       y1="13.375"
       x2="47.5625"
       y2="13.375" />
    <linearGradient
       inkscape:collect="always"
       xlink:href="#linearGradient3276"
       id="linearGradient229"
       gradientUnits="userSpaceOnUse"
       x1="35.176235"
       y1="17.240854"
       x2="47.651093"
       y2="17.240854" />
    <linearGradient
       inkscape:collect="always"
       xlink:href="#linearGradient3276"
       id="linearGradient231"
       gradientUnits="userSpaceOnUse"
       x1="35.253414"
       y1="14.589205"
       x2="48.08326"
       y2="14.589205" />
  </defs>
  <sodipodi:namedview
     id="base"
     pagecolor="#ffffff"
     bordercolor="#666"
     borderopacity="1"
     inkscape:pageopacity="0.0"
     inkscape:pageshadow="2"
     inkscape:zoom="12.403831"
     inkscape:cx="24"
     inkscape:cy="24"
     inkscape:current-layer="g3311"
     showgrid="false"
     inkscape:grid-bbox="true"
     inkscape:document-units="px"
     fill="#fcaf3e"
     stroke="#555753"
     showguides="true"
     inkscape:guide-bbox="true"
     inkscape:window-width="1853"
     inkscape:window-height="1016"
     inkscape:window-x="67"
     inkscape:window-y="27"
     inkscape:showpageshadow="false"
     showborder="true"
     inkscape:grid-points="true"
     width="48px"
     height="48px"
     inkscape:pagecheckerboard="false"
     inkscape:window-maximized="1">
    <inkscape:grid
       id="GridFromPre046Settings"
       type="xygrid"
       originx="0"
       originy="0"
       spacingx="0.5"
       spacingy="0.5"
       color="#3f3fff"
       empcolor="#3f3fff"
       opacity="0.15"
       empopacity="0.38"
       empspacing="2" />
  </sodipodi:namedview>
  <metadata
     id="metadata1311">
    <rdf:RDF>
      <cc:Work
         rdf:about="">
        <dc:format>image/svg+xml</dc:format>
        <dc:type
           rdf:resource="http://purl.org/dc/dcmitype/StillImage" />
        <dc:title></dc:title>
        <dc:creator>
          <cc:Agent>
            <dc:title>Lapo Calamandrei</dc:title>
          </cc:Agent>
        </dc:creator>
        <dc:source>http://www.gnome.org</dc:source>
        <dc:contributor>
          <cc:Agent>
            <dc:title />
          </cc:Agent>
        </dc:contributor>
        <cc:license
           rdf:resource="http://creativecommons.org/licenses/GPL/2.0/" />
        <dc:subject>
          <rdf:Bag>
            <rdf:li>insert</rdf:li>
            <rdf:li>imag</rdf:li>
            <rdf:li>generic</rdf:li>
          </rdf:Bag>
        </dc:subject>
      </cc:Work>
      <cc:License
         rdf:about="http://creativecommons.org/licenses/GPL/2.0/">
        <cc:permits
           rdf:resource="http://web.resource.org/cc/Reproduction" />
        <cc:permits
           rdf:resource="http://web.resource.org/cc/Distribution" />
        <cc:requires
           rdf:resource="http://web.resource.org/cc/Notice" />
        <cc:permits
           rdf:resource="http://web.resource.org/cc/DerivativeWorks" />
        <cc:requires
           rdf:resource="http://web.resource.org/cc/ShareAlike" />
        <cc:requires
           rdf:resource="http://web.resource.org/cc/SourceCode" />
      </cc:License>
    </rdf:RDF>
  </metadata>
  <g
     id="layer1"
     inkscape:label="Layer 1"
     inkscape:groupmode="layer">
    <ellipse
       style="color:#000000;display:inline;overflow:visible;visibility:visible;opacity:0.2;fill:url(#radialGradient2268);fill-opacity:1;fill-rule:nonzero;stroke:none;stroke-width:1.06317127;stroke-linecap:round;stroke-linejoin:miter;stroke-miterlimit:4;stroke-dasharray:none;stroke-dashoffset:1.39999998;stroke-opacity:1;marker:none;marker-start:none;marker-mid:none;marker-end:none"
       id="path2243"
       cx="23.49999"
       cy="44.628677"
       rx="17.500011"
       ry="3.3713176" />
    <g
       transform="translate(-1.7232516e-8,17.048063)"
       id="g141">
      <g
         id="g3410">
        <rect
           style="opacity:1;fill:url(#linearGradient2506);fill-opacity:1;stroke:#555753;stroke-width:0.99999952;stroke-linecap:round;stroke-linejoin:miter;stroke-miterlimit:4;stroke-dasharray:none;stroke-dashoffset:1.39999998;stroke-opacity:1"
           id="rect2308"
           width="17.000036"
           height="5.0000014"
           x="15.499967"
           y="16.499998" />
        <path
           inkscape:connector-curvature="0"
           style="fill:url(#linearGradient2508);fill-opacity:1;stroke:url(#linearGradient2510);stroke-width:0.99999917;stroke-linecap:round;stroke-linejoin:miter;stroke-miterlimit:4;stroke-dasharray:none;stroke-dashoffset:1.39999998;stroke-opacity:1"
           d="m 26.5,22.5 c 0,3 5.201962,5.000001 6.9375,5 H 50.5 v -5 z"
           id="path2387"
           sodipodi:nodetypes="ccccc" />
        <path
           inkscape:connector-curvature="0"
           style="opacity:0.7;fill:none;fill-opacity:1;stroke:url(#linearGradient2512);stroke-width:0.99999917;stroke-linecap:round;stroke-linejoin:miter;stroke-miterlimit:4;stroke-dasharray:none;stroke-dashoffset:1.39999998;stroke-opacity:1"
           d="M 49.5,23.5 H 34.90625 c -0.402974,0.324101 -0.877334,0.5 -1.375,0.5"
           id="path3315"
           sodipodi:nodetypes="ccc" />
        <path
           inkscape:connector-curvature="0"
           style="opacity:1;fill:#d3d7cf;fill-opacity:1;stroke:#888a85;stroke-width:0.99999911;stroke-linecap:round;stroke-linejoin:miter;stroke-miterlimit:4;stroke-dasharray:none;stroke-dashoffset:1.39999998;stroke-opacity:1"
           d="M 11.1875,18.5 C 10.768143,19.213373 10.5,20.075257 10.5,21 c 0,2.492998 1.766265,4.499999 3.96875,4.5 h 19.0625 c 2.202485,0 3.968751,-2.007001 3.96875,-4.5 0,-0.924743 -0.268143,-1.786627 -0.6875,-2.5 H 34 c -1.211875,0 -2.205146,0.85874 -2.4375,2 H 30 25.53125 18 c -1.211876,1e-6 -2.205146,-0.85874 -2.4375,-2 z"
           id="rect2342" />
        <path
           inkscape:connector-curvature="0"
           style="opacity:0.5;fill:none;fill-rule:evenodd;stroke:#ffffff;stroke-width:1px;stroke-linecap:butt;stroke-linejoin:miter;stroke-opacity:1"
           d="m 17.5,17.5 h 13"
           id="path3301" />
        <path
           inkscape:connector-curvature="0"
           style="fill:url(#linearGradient2514);fill-opacity:1;stroke:url(#linearGradient227);stroke-width:0.99999917;stroke-linecap:round;stroke-linejoin:miter;stroke-miterlimit:4;stroke-dasharray:none;stroke-dashoffset:1.39999998;stroke-opacity:1"
           d="m 32.4375,13.5 c -2.110715,0 -5.798132,3.08704 -5.9375,7 h 8.96875 v -2 H 50.5 v -5 z"
           id="path2389"
           sodipodi:nodetypes="ccccccc" />
        <path
           sodipodi:type="inkscape:offset"
           inkscape:radius="-0.46875"
           inkscape:original="M 32.4375 13.5 C 30.326785 13.5 26.639368 16.58704 26.5 20.5 L 35.46875 20.5 L 35.46875 18.5 L 50.5 18.5 L 50.5 13.5 L 32.4375 13.5 z "
           style="opacity:0.8;fill:url(#radialGradient2518);fill-opacity:1;stroke:none;stroke-width:0.99999917;stroke-linecap:round;stroke-linejoin:miter;stroke-miterlimit:4;stroke-dasharray:none;stroke-dashoffset:1.39999998;stroke-opacity:1"
           id="path3407"
           d="m 32.4375,13.96875 c -0.826833,0 -2.229892,0.692771 -3.369141,1.886719 -1.034784,1.084467 -1.834614,2.55735 -2.027343,4.175781 H 35 V 18.5 a 0.46879688,0.46879688 0 0 1 0.46875,-0.46875 h 14.5625 v -4.0625 z" />
        <path
           inkscape:connector-curvature="0"
           style="opacity:0.6;fill:none;fill-opacity:1;stroke:url(#linearGradient229);stroke-width:0.99999917;stroke-linecap:round;stroke-linejoin:miter;stroke-miterlimit:4;stroke-dasharray:none;stroke-dashoffset:1.39999998;stroke-opacity:1"
           d="M 30.65625,22 C 30.562069,21.681452 30.5,21.350165 30.5,21 c 0,-1.921703 1.578298,-3.5 3.5,-3.5 h 15.5"
           id="path3311"
           sodipodi:nodetypes="cscc" />
        <path
           inkscape:connector-curvature="0"
           style="fill:none;fill-opacity:1;stroke:url(#linearGradient231);stroke-width:0.99999917;stroke-linecap:round;stroke-linejoin:miter;stroke-miterlimit:4;stroke-dasharray:none;stroke-dashoffset:1.39999998;stroke-opacity:1"
           d="M 49.5,14.5 H 32.4375 c -0.567839,0 -1.933132,0.600658 -3,1.71875 C 28.370632,17.336842 27.55885,18.847695 27.5,20.5 V 22"
           id="path3313"
           sodipodi:nodetypes="ccscc" />
        <path
           inkscape:connector-curvature="0"
           style="opacity:0.4;fill:none;fill-opacity:1;stroke:url(#linearGradient2524);stroke-width:0.99999917;stroke-linecap:round;stroke-linejoin:miter;stroke-miterlimit:4;stroke-dasharray:none;stroke-dashoffset:1.39999998;stroke-opacity:1"
           d="m 28.21875,24 c 0.402721,0.450694 0.936985,0.871288 1.59375,1.25 1.374593,0.792634 3.141359,1.25 3.625,1.25 H 49.5"
           id="path3317"
           sodipodi:nodetypes="cscc" />
        <g
           id="g3264"
           transform="matrix(-1,0,0,1,48,0)">
          <path
             inkscape:connector-curvature="0"
             sodipodi:nodetypes="ccccc"
             id="path3250"
             d="m 26.5,22.5 c 0,3 5.201962,5.000001 6.9375,5 H 50.5 v -5 z"
             style="fill:url(#linearGradient2526);fill-opacity:1;stroke:url(#linearGradient2528);stroke-width:0.99999917;stroke-linecap:round;stroke-linejoin:miter;stroke-miterlimit:4;stroke-dasharray:none;stroke-dashoffset:1.39999998;stroke-opacity:1" />
          <path
             inkscape:connector-curvature="0"
             sodipodi:nodetypes="ccc"
             id="path3252"
             d="M 49.5,23.5 H 34.90625 c -0.402974,0.324101 -0.877334,0.5 -1.375,0.5"
             style="opacity:0.7;fill:none;fill-opacity:1;stroke:url(#linearGradient2530);stroke-width:0.99999917;stroke-linecap:round;stroke-linejoin:miter;stroke-miterlimit:4;stroke-dasharray:none;stroke-dashoffset:1.39999998;stroke-opacity:1" />
          <path
             inkscape:connector-curvature="0"
             sodipodi:nodetypes="ccccccc"
             id="path3254"
             d="m 32.4375,13.5 c -2.110715,0 -5.798132,3.08704 -5.9375,7 h 8.96875 v -2 H 50.5 v -5 z"
             style="fill:url(#linearGradient2532);fill-opacity:1;stroke:url(#linearGradient2516);stroke-width:0.99999917;stroke-linecap:round;stroke-linejoin:miter;stroke-miterlimit:4;stroke-dasharray:none;stroke-dashoffset:1.39999998;stroke-opacity:1" />
          <path
             d="m 32.4375,13.96875 c -0.826833,0 -2.229892,0.692771 -3.369141,1.886719 -1.034784,1.084467 -1.834614,2.55735 -2.027343,4.175781 H 35 V 18.5 a 0.46879688,0.46879688 0 0 1 0.46875,-0.46875 h 14.5625 v -4.0625 z"
             id="path3256"
             style="opacity:0.7;fill:url(#radialGradient2536);fill-opacity:1;stroke:none;stroke-width:0.99999917;stroke-linecap:round;stroke-linejoin:miter;stroke-miterlimit:4;stroke-dasharray:none;stroke-dashoffset:1.39999998;stroke-opacity:1"
             inkscape:original="M 32.4375 13.5 C 30.326785 13.5 26.639368 16.58704 26.5 20.5 L 35.46875 20.5 L 35.46875 18.5 L 50.5 18.5 L 50.5 13.5 L 32.4375 13.5 z "
             inkscape:radius="-0.46875"
             sodipodi:type="inkscape:offset" />
          <path
             inkscape:connector-curvature="0"
             sodipodi:nodetypes="cscc"
             id="path3258"
             d="M 30.65625,22 C 30.562069,21.681452 30.5,21.350165 30.5,21 c 0,-1.921703 1.578298,-3.5 3.5,-3.5 h 15.5"
             style="opacity:0.6;fill:none;fill-opacity:1;stroke:url(#linearGradient2520);stroke-width:0.99999917;stroke-linecap:round;stroke-linejoin:miter;stroke-miterlimit:4;stroke-dasharray:none;stroke-dashoffset:1.39999998;stroke-opacity:1" />
          <path
             inkscape:connector-curvature="0"
             sodipodi:nodetypes="ccscc"
             id="path3260"
             d="M 49.5,14.5 H 32.4375 c -0.567839,0 -1.933132,0.600658 -3,1.71875 C 28.370632,17.336842 27.55885,18.847695 27.5,20.5 V 22"
             style="fill:none;fill-opacity:1;stroke:url(#linearGradient2522);stroke-width:0.99999917;stroke-linecap:round;stroke-linejoin:miter;stroke-miterlimit:4;stroke-dasharray:none;stroke-dashoffset:1.39999998;stroke-opacity:1" />
          <path
             inkscape:connector-curvature="0"
             sodipodi:nodetypes="cscc"
             id="path3262"
             d="m 28.21875,24 c 0.402721,0.450694 0.936985,0.871288 1.59375,1.25 1.374593,0.792634 3.141359,1.25 3.625,1.25 H 49.5"
             style="opacity:0.5;fill:none;fill-opacity:1;stroke:url(#linearGradient2542);stroke-width:0.99999917;stroke-linecap:round;stroke-linejoin:miter;stroke-miterlimit:4;stroke-dasharray:none;stroke-dashoffset:1.39999998;stroke-opacity:1" />
        </g>
        <path
           inkscape:connector-curvature="0"
           style="opacity:1;fill:url(#linearGradient2544);fill-opacity:1;stroke:#555753;stroke-width:0.99999911;stroke-linecap:round;stroke-linejoin:round;stroke-miterlimit:4;stroke-dasharray:none;stroke-dashoffset:1.39999998;stroke-opacity:1"
           d="M 11.1875,18.5 C 10.768143,19.213373 10.5,20.075257 10.5,21 c -10e-7,2.492999 1.766265,4.5 3.96875,4.5 h 19.0625 c 2.202485,0 3.968751,-2.007001 3.96875,-4.5 0,-0.924743 -0.268143,-1.786627 -0.6875,-2.5 H 34 c -1.211875,0 -2.205146,0.85874 -2.4375,2 H 16.4375 C 16.205146,19.35874 15.211875,18.5 14,18.5 Z"
           id="path2369"
           sodipodi:nodetypes="csccscccccc" />
        <path
           inkscape:connector-curvature="0"
           style="opacity:0.5;fill:#ffffff;fill-opacity:1;stroke:none;stroke-width:0.99999911;stroke-linecap:round;stroke-linejoin:miter;stroke-miterlimit:4;stroke-dasharray:none;stroke-dashoffset:1.39999998;stroke-opacity:1"
           d="m 35.8125,18 z m -24.25,1 c -0.222326,0.430873 -0.440293,0.902367 -0.53125,1.40625 C 10.996251,20.600139 11,20.795284 11,21 c -10e-7,1.128418 0.401404,2.125855 1.03125,2.84375 0.157292,0.179772 0.315348,0.326549 0.5,0.46875 0.184652,0.142201 0.386524,0.275285 0.59375,0.375 C 13.539199,24.886185 13.994066,25 14.46875,25 h 19.0625 c 0.476038,0 0.929298,-0.11307 1.34375,-0.3125 0.207226,-0.09971 0.409098,-0.232799 0.59375,-0.375 0.184652,-0.142201 0.342708,-0.288978 0.5,-0.46875 C 36.598596,23.125854 37,22.128418 37,21 c 0,-0.183418 -0.01107,-0.355105 -0.03125,-0.53125 -0.0032,-0.01956 0.0035,-0.04305 0,-0.0625 C 36.877793,19.902367 36.659826,19.430873 36.4375,19 H 35.375 c 0.377188,0.511977 0.625,1.196919 0.625,2 10e-7,1.794054 -1.182922,3 -2.46875,3 H 14.46875 C 13.182922,23.999999 12,22.794053 12,21 c 0,-0.803081 0.247812,-1.488023 0.625,-2 z"
           id="path3299"
           sodipodi:nodetypes="cccsssssccssssssccsccscc" />
        <path
           inkscape:connector-curvature="0"
           style="opacity:0.8;fill:#ffffff;fill-opacity:1;stroke:none;stroke-width:0.99999976;stroke-linecap:round;stroke-linejoin:miter;stroke-miterlimit:4;stroke-dashoffset:1.39999998;stroke-opacity:1"
           d="m 15,19.25 v 1.3125 C 15,21.350226 15.649774,22 16.4375,22 h 15.125 C 32.350226,22 33,21.350226 33,20.5625 V 19.25 c -0.481727,0.278997 -0.820899,0.771035 -0.9375,1.34375 C 32.04967,20.66098 32.00479,20.695863 31.96875,20.75 31.904537,20.908347 31.750768,21 31.5625,21 H 16.4375 C 16.262617,21.0031 16.123355,20.888349 16.03125,20.75 15.99521,20.69586 15.95033,20.66098 15.9375,20.59375 15.820899,20.021035 15.481727,19.528997 15,19.25 Z"
           id="rect3343"
           sodipodi:nodetypes="ccccccssccssc" />
      </g>
      <path
         d="M 11.513672,19 C 11.209788,19.593716 11,20.268701 11,21 c -10e-7,2.256835 1.570013,4 3.46875,4 h 19.0625 C 35.429987,25 37.000001,23.256835 37,21 37,20.268701 36.790212,19.593716 36.486328,19 H 34 c -0.975674,0 -1.760703,0.683266 -1.947266,1.599609 A 0.50004997,0.50004997 0 0 1 31.5625,21 H 16.4375 A 0.50004997,0.50004997 0 0 1 15.947266,20.599609 C 15.760703,19.683266 14.975674,19 14,19 Z"
         id="path3485"
         style="opacity:1;fill:url(#radialGradient2504);fill-opacity:1;stroke:none;stroke-width:0.99999911;stroke-linecap:round;stroke-linejoin:round;stroke-miterlimit:4;stroke-dasharray:none;stroke-dashoffset:1.39999998;stroke-opacity:1"
         inkscape:original="M 11.1875 18.5 C 10.768143 19.213373 10.5 20.075257 10.5 21 C 10.499999 23.492999 12.266265 25.5 14.46875 25.5 L 33.53125 25.5 C 35.733735 25.5 37.500001 23.492999 37.5 21 C 37.5 20.075257 37.231857 19.213373 36.8125 18.5 L 34 18.5 C 32.788125 18.5 31.794854 19.35874 31.5625 20.5 L 16.4375 20.5 C 16.205146 19.35874 15.211875 18.5 14 18.5 L 11.1875 18.5 z "
         inkscape:radius="-0.49999997"
         sodipodi:type="inkscape:offset" />
    </g>
    <g
       id="g3311"
       transform="translate(49.91938,-0.5488355)">
      <rect
         ry="2.421876"
         rx="2.3764169"
         y="3.5000019"
         x="-46.472988"
         height="30.000021"
         width="40.972977"
         id="rect2227"
         style="fill:#eeeeec;fill-opacity:1;stroke:#2e3436;stroke-width:0.99999988;stroke-linecap:round;stroke-linejoin:round;stroke-miterlimit:4;stroke-dasharray:none;stroke-dashoffset:0;stroke-opacity:1" />
      <rect
         ry="0.4375"
         rx="0.43750024"
         y="6.5"
         x="-43.5"
         height="24"
         width="35.027027"
         id="rect2229"
         style="fill:url(#linearGradient3308);fill-opacity:1;stroke:#888a85;stroke-width:0.99999994;stroke-linecap:round;stroke-linejoin:round;stroke-miterlimit:4;stroke-dasharray:none;stroke-dashoffset:0;stroke-opacity:1" />
      <path
         inkscape:r_cy="true"
         inkscape:r_cx="true"
         id="path2231"
         d="m -33.916211,17.551777 c -5.168779,0.327955 -9.281251,4.655188 -9.281251,9.90625 0,0.202785 0.01921,0.393975 0.03125,0.59375 h 19.750001 c 0.01204,-0.199775 0.03125,-0.390965 0.03125,-0.59375 0,-5.464521 -4.441729,-9.90625 -9.90625,-9.90625 -0.213458,0 -0.414887,-0.01333 -0.625,0 z"
         style="color:#000000;display:inline;overflow:visible;visibility:visible;fill:url(#radialGradient3305);fill-opacity:1;fill-rule:evenodd;stroke:none;stroke-width:1;stroke-linecap:round;stroke-linejoin:round;stroke-miterlimit:4;stroke-dasharray:none;stroke-dashoffset:0;stroke-opacity:1;marker:none;marker-start:none;marker-mid:none;marker-end:none"
         inkscape:connector-curvature="0" />
      <rect
         ry="0"
         rx="0"
         y="28"
         x="-43"
         height="2"
         width="34"
         id="rect2233"
         style="fill:url(#linearGradient3302);fill-opacity:1;stroke:none;stroke-width:1;stroke-linecap:round;stroke-linejoin:round;stroke-miterlimit:4;stroke-dasharray:none;stroke-dashoffset:0;stroke-opacity:1" />
      <path
         sodipodi:nodetypes="cccccccccccccccccccccccccccccccccccc"
         id="path2235"
         d="m -20.444416,28.972272 c 0,0 -0.555584,-3.083355 -0.555584,-4.972272 0.01541,-0.861699 7.786707,-7.574609 7.806757,-8.574524 L -15,17 -16.265165,13.558058 -12,14 l 2,-2 -2.265165,1.662913 -0.779029,-0.176777 L -14,10 l 0.486136,3.397748 -3.53033,-0.176777 1.104854,2.811961 L -19,13 l 3.237437,4.221464 c 8.5e-5,0.941528 -6.380874,6.689202 -6.37002,5.698133 L -24.779029,19.370019 -25,14.571429 -23,14 l 1.752155,-4.320621 -2.30972,3.993315 -1.803168,-0.0817 -4.036388,-3.409009 -5.542219,-2.121321 4.734835,2.602253 L -34,11 h 5 l 3,3 0.353553,5.181981 L -31,14 -28.748699,16.707107 -32,19 l 3.571429,-2 5.649542,7.116117 L -23,28.972272 Z"
         style="fill:#000000;fill-opacity:1;fill-rule:evenodd;stroke:none;stroke-width:1px;stroke-linecap:butt;stroke-linejoin:miter;stroke-opacity:1"
         inkscape:connector-curvature="0" />
      <path
         style="color:#000000;display:inline;overflow:visible;visibility:visible;fill:#fef39e;fill-opacity:1;fill-rule:evenodd;stroke:none;stroke-width:1;stroke-linecap:round;stroke-linejoin:round;stroke-miterlimit:4;stroke-dasharray:none;stroke-dashoffset:0;stroke-opacity:1;marker:none;marker-start:none;marker-mid:none;marker-end:none"
         d="m -33.632266,22.233668 c -2.820539,0.178961 -5.064664,2.540279 -5.064664,5.405719 0,0.110657 0.01048,0.214987 0.01705,0.324002 h 10.777333 c 0.0066,-0.109015 0.01705,-0.213345 0.01705,-0.324002 0,-2.981922 -2.423797,-5.405719 -5.405719,-5.405719 -0.116482,0 -0.226399,-0.0073 -0.341055,0 z"
         id="path2237"
         inkscape:r_cx="true"
         inkscape:r_cy="true"
         inkscape:connector-curvature="0" />
      <path
         inkscape:r_cy="true"
         inkscape:r_cx="true"
         id="path2239"
         d="m -33.551318,23.531973 c -2.151088,0.136486 -3.862573,1.937349 -3.862573,4.122681 0,0.08439 0.008,0.16396 0.013,0.2471 h 8.219349 c 0.005,-0.08314 0.01301,-0.162708 0.01301,-0.2471 0,-2.274167 -1.848512,-4.122681 -4.12268,-4.122681 -0.08884,0 -0.172663,-0.0055 -0.260106,0 z"
         style="color:#000000;display:inline;overflow:visible;visibility:visible;fill:#fffbd7;fill-opacity:0.55681817;fill-rule:evenodd;stroke:none;stroke-width:1;stroke-linecap:round;stroke-linejoin:round;stroke-miterlimit:4;stroke-dasharray:none;stroke-dashoffset:0;stroke-opacity:1;marker:none;marker-start:none;marker-mid:none;marker-end:none"
         inkscape:connector-curvature="0" />
      <rect
         ry="1.3854144"
         rx="1.3854144"
         y="4.5000257"
         x="-45.473003"
         height="27.999979"
         width="38.973003"
         id="rect2241"
         style="fill:none;fill-opacity:1;stroke:#ffffff;stroke-width:0.99999994;stroke-linecap:round;stroke-linejoin:round;stroke-miterlimit:4;stroke-dasharray:none;stroke-dashoffset:0;stroke-opacity:1" />
    </g>
  </g>
</svg>
