<?xml version="1.0" encoding="UTF-8" standalone="no"?>
<!-- Generator: Adobe Illustrator 15.0.2, SVG Export Plug-In . SVG Version: 6.00 Build 0)  -->

<svg
   xmlns:dc="http://purl.org/dc/elements/1.1/"
   xmlns:cc="http://creativecommons.org/ns#"
   xmlns:rdf="http://www.w3.org/1999/02/22-rdf-syntax-ns#"
   xmlns:svg="http://www.w3.org/2000/svg"
   xmlns="http://www.w3.org/2000/svg"
   xmlns:sodipodi="http://sodipodi.sourceforge.net/DTD/sodipodi-0.dtd"
   xmlns:inkscape="http://www.inkscape.org/namespaces/inkscape"
   version="1.1"
   id="svg7854"
   inkscape:output_extension="org.inkscape.output.svg.inkscape"
   inkscape:export-filename="/home/luca/Dropbox/MATLAB scripts/FollicleFinder/Follicle Finder_resources/48px-Swap-auto-manual.png"
   inkscape:export-xdpi="96"
   sodipodi:docname="Swap.svg"
   sodipodi:version="0.32"
   inkscape:version="0.92.3 (2405546, 2018-03-11)"
   inkscape:export-ydpi="96"
   x="0px"
   y="0px"
   width="48"
   height="48"
   viewBox="6.5 9.5 48 48"
   enable-background="new 6.5 9.5 35 29"
   xml:space="preserve"><metadata
   id="metadata203"><rdf:RDF><cc:Work
       rdf:about=""><dc:format>image/svg+xml</dc:format><dc:type
         rdf:resource="http://purl.org/dc/dcmitype/StillImage" /><dc:title></dc:title></cc:Work></rdf:RDF></metadata><defs
   id="defs201" /><sodipodi:namedview
   pagecolor="#ffffff"
   bordercolor="#666666"
   borderopacity="1"
   objecttolerance="10"
   gridtolerance="10"
   guidetolerance="10"
   inkscape:pageopacity="0"
   inkscape:pageshadow="2"
   inkscape:window-width="1853"
   inkscape:window-height="1016"
   id="namedview199"
   showgrid="false"
   inkscape:zoom="13.485714"
   inkscape:cx="40.196284"
   inkscape:cy="30.83554"
   inkscape:window-x="67"
   inkscape:window-y="27"
   inkscape:window-maximized="1"
   inkscape:current-layer="svg7854" />
<g
   id="g98"
   transform="matrix(1.3729437,0,0,1.3729437,-2.6106057,0.826294)">
	
		<linearGradient
   id="SVGID_1_"
   gradientUnits="userSpaceOnUse"
   x1="-11.9995"
   y1="-786.74512"
   x2="-11.9995"
   y2="-799.37811"
   gradientTransform="matrix(1,0,0,-1,25.5,-769)">
		<stop
   offset="0"
   style="stop-color:#000000;stop-opacity:0.2353"
   id="stop2" />
		<stop
   offset="1"
   style="stop-color:#FFFFFF"
   id="stop4" />
	</linearGradient>
	<path
   enable-background="new    "
   d="m 7,19.5 v 9.062 c 0,3.562 2.935,6.5 6.5,6.5 h 5 c 0.828,-0.002 1.499,-0.672 1.5,-1.5 V 31.5 H 11 V 17"
   id="path7"
   inkscape:connector-curvature="0"
   style="opacity:0.4;fill:url(#SVGID_1_)" />
	
		<linearGradient
   id="SVGID_2_"
   gradientUnits="userSpaceOnUse"
   x1="5.5005002"
   y1="-786.86621"
   x2="5.5005002"
   y2="-801.55658"
   gradientTransform="matrix(1,0,0,-1,25.5,-769)">
		<stop
   offset="0"
   style="stop-color:#000000;stop-opacity:0.2353"
   id="stop9" />
		<stop
   offset="1"
   style="stop-color:#FFFFFF"
   id="stop11" />
	</linearGradient>
	<path
   enable-background="new    "
   d="M 37,17 V 31.5 H 21 c 0,0.482 0.233,0.938 0.625,1.219 l 7,5 c 0.457,0.326 1.062,0.381 1.562,0.125 0.5,-0.256 0.811,-0.782 0.813,-1.344 v -1.438 h 3.5 c 3.564,0 6.5,-2.938 6.5,-6.5 V 19.5"
   id="path14"
   inkscape:connector-curvature="0"
   style="opacity:0.4;fill:url(#SVGID_2_)" />
	
		<linearGradient
   id="SVGID_3_"
   gradientUnits="userSpaceOnUse"
   x1="-9.9995003"
   y1="-790.34381"
   x2="-9.9995003"
   y2="-800.50098"
   gradientTransform="matrix(1,0,0,-1,25.5,-769)">
		<stop
   offset="0"
   style="stop-color:#FFFFFF"
   id="stop16" />
		<stop
   offset="0.5208"
   style="stop-color:#000000;stop-opacity:0.2353"
   id="stop18" />
		<stop
   offset="0.8003"
   style="stop-color:#000000;stop-opacity:0.2353"
   id="stop20" />
		<stop
   offset="1"
   style="stop-color:#FFFFFF"
   id="stop22" />
	</linearGradient>
	<path
   enable-background="new    "
   d="m 11,17 v 14.5 h 9 v -1.938 c -0.001,-0.828 -0.672,-1.498 -1.5,-1.5 H 14 V 20"
   id="path25"
   inkscape:connector-curvature="0"
   style="opacity:0.4;fill:url(#SVGID_3_)" />
	
		<linearGradient
   id="SVGID_4_"
   gradientUnits="userSpaceOnUse"
   x1="3.5005"
   y1="-790.34381"
   x2="3.5005"
   y2="-800.50098"
   gradientTransform="matrix(1,0,0,-1,25.5,-769)">
		<stop
   offset="0"
   style="stop-color:#FFFFFF"
   id="stop27" />
		<stop
   offset="0.5208"
   style="stop-color:#000000;stop-opacity:0.2353"
   id="stop29" />
		<stop
   offset="0.8003"
   style="stop-color:#000000;stop-opacity:0.2353"
   id="stop31" />
		<stop
   offset="1"
   style="stop-color:#FFFFFF"
   id="stop33" />
	</linearGradient>
	<path
   enable-background="new    "
   d="m 34,20 v 8.062 H 31 V 26.5 c -0.002,-0.562 -0.312,-1.088 -0.812,-1.344 -0.5,-0.256 -1.104,-0.201 -1.562,0.125 l -7,5 C 21.233,30.562 21,31.018 21,31.5 H 37 V 17"
   id="path36"
   inkscape:connector-curvature="0"
   style="opacity:0.4;fill:url(#SVGID_4_)" />
	
		<linearGradient
   id="SVGID_5_"
   gradientUnits="userSpaceOnUse"
   x1="-597.8208"
   y1="-291.1875"
   x2="-597.8208"
   y2="-280.34131"
   gradientTransform="matrix(3.7501,0,0,-1.7575,2255.3855,-478.2007)">
		<stop
   offset="0"
   style="stop-color:#92948F"
   id="stop38" />
		<stop
   offset="1"
   style="stop-color:#EEEEEC"
   id="stop40" />
	</linearGradient>
	
		<path
   sodipodi:nodetypes="cccccccccccccccccccccccc"
   d="m 13.5,14.5 c -2.736,0 -5,2.264 -5,5 v 9.062 c 0,2.734 2.264,5 5,5 h 5 v -4 h -5 c -0.589,0 -1,-0.412 -1,-1 V 19.5 c 0,-0.589 0.411,-1 1,-1"
   id="path43"
   inkscape:connector-curvature="0"
   style="fill:url(#SVGID_5_);stroke:#555753;stroke-linecap:round;stroke-linejoin:round" />
	
		<radialGradient
   id="SVGID_6_"
   cx="-592.30573"
   cy="-289.9043"
   r="13.3534"
   gradientTransform="matrix(3.7501,0,0,-1.7575,2255.3855,-478.2007)"
   gradientUnits="userSpaceOnUse">
		<stop
   offset="0"
   style="stop-color:#92948F"
   id="stop45" />
		<stop
   offset="1"
   style="stop-color:#EEEEEC"
   id="stop47" />
	</radialGradient>
	
		<path
   sodipodi:nodetypes="cccccccccccccccccccccccc"
   d="m 34.5,18.5 c 0.589,0 1,0.411 1,1 v 9.062 c 0,0.588 -0.411,1 -1,1 h -5 V 26.5 l -7,5 7,5 v -2.938 h 5 c 2.736,0 5,-2.266 5,-5 V 19.5 c 0,-2.736 -2.264,-5 -5,-5"
   id="path50"
   inkscape:connector-curvature="0"
   style="fill:url(#SVGID_6_);stroke:#555753;stroke-linecap:round;stroke-linejoin:round" />
	
		<path
   inkscape:radius="-0.90625"
   inkscape:original="M 13.5 14.5 C 10.764102 14.5 8.5 16.764102 8.5 19.5 L 8.5 28.5625 C 8.5 31.298398 10.764102 33.5625 13.5 33.5625 L 18.5 33.5625 L 18.5 29.5625 L 13.5 29.5625 C 12.910913 29.5625 12.5 29.151587 12.5 28.5625 L 12.5 19.5 C 12.5 18.910914 12.910913 18.5 13.5 18.5 L 34.5 18.5 C 35.089091 18.5 35.5 18.910913 35.5 19.5 L 35.5 28.5625 C 35.5 29.151586 35.089087 29.5625 34.5 29.5625 L 29.5 29.5625 L 29.5 26.5 L 22.5 31.5 L 29.5 36.5 L 29.5 33.5625 L 34.5 33.5625 C 37.235898 33.5625 39.499998 31.298398 39.5 28.5625 L 39.5 19.5 C 39.5 16.764102 37.235899 14.5 34.5 14.5 L 13.5 14.5 z "
   sodipodi:type="inkscape:offset"
   d="m 13.5,15.40625 c -2.235918,0 -4.09375,1.857832 -4.09375,4.09375 v 9.0625 c 0,2.235918 1.857832,4.09375 4.09375,4.09375 h 4.09375 v -2.1875 H 13.5 c -1.010519,0 -1.90625,-0.895731 -1.90625,-1.90625 V 19.5 c 0,-1.010518 0.89573,-1.90625 1.90625,-1.90625 h 21 c 1.01052,0 1.90625,0.895735 1.90625,1.90625 v 9.0625 c 0,1.010518 -0.89573,1.90625 -1.90625,1.90625 h -5 A 0.90634063,0.90634063 0 0 1 28.59375,29.5625 V 28.261719 L 24.060547,31.5 28.59375,34.738281 V 33.5625 A 0.90634063,0.90634063 0 0 1 29.5,32.65625 h 5 c 2.235918,0 4.093748,-1.857831 4.09375,-4.09375 V 19.5 c 0,-2.235918 -1.857831,-4.09375 -4.09375,-4.09375 z"
   id="path52"
   style="fill:none;stroke:#ffffff;stroke-width:0.80000001;stroke-linecap:round" />
	
		<path
   inkscape:radius="-0.90625"
   inkscape:original="M 13.5 14.5 C 10.764102 14.5 8.5 16.764102 8.5 19.5 L 8.5 28.5625 C 8.5 31.298398 10.764102 33.5625 13.5 33.5625 L 18.5 33.5625 L 18.5 29.5625 L 13.5 29.5625 C 12.910913 29.5625 12.5 29.151587 12.5 28.5625 L 12.5 19.5 C 12.5 18.910914 12.910913 18.5 13.5 18.5 L 34.5 18.5 C 35.089091 18.5 35.5 18.910913 35.5 19.5 L 35.5 28.5625 C 35.5 29.151586 35.089087 29.5625 34.5 29.5625 L 29.5 29.5625 L 29.5 26.5 L 22.5 31.5 L 29.5 36.5 L 29.5 33.5625 L 34.5 33.5625 C 37.235898 33.5625 39.499998 31.298398 39.5 28.5625 L 39.5 19.5 C 39.5 16.764102 37.235899 14.5 34.5 14.5 L 13.5 14.5 z "
   sodipodi:type="inkscape:offset"
   d="m 13.5,15.40625 c -2.235918,0 -4.09375,1.857832 -4.09375,4.09375 v 9.0625 c 0,2.235918 1.857832,4.09375 4.09375,4.09375 h 4.09375 v -2.1875 H 13.5 c -1.010519,0 -1.90625,-0.895731 -1.90625,-1.90625 V 19.5 c 0,-1.010518 0.89573,-1.90625 1.90625,-1.90625 h 21 c 1.01052,0 1.90625,0.895735 1.90625,1.90625 v 9.0625 c 0,1.010518 -0.89573,1.90625 -1.90625,1.90625 h -5 A 0.90634063,0.90634063 0 0 1 28.59375,29.5625 V 28.261719 L 24.060547,31.5 28.59375,34.738281 V 33.5625 A 0.90634063,0.90634063 0 0 1 29.5,32.65625 h 5 c 2.235918,0 4.093748,-1.857831 4.09375,-4.09375 V 19.5 c 0,-2.235918 -1.857831,-4.09375 -4.09375,-4.09375 z"
   id="path54"
   style="fill:none;stroke:#ffffff;stroke-width:0.80000001;stroke-linecap:round" />
	
		<linearGradient
   id="SVGID_7_"
   gradientUnits="userSpaceOnUse"
   x1="-12.8745"
   y1="-805.38568"
   x2="31.3391"
   y2="-781.04602"
   gradientTransform="matrix(1,0,0,-1,25.5,-769)">
		<stop
   offset="0"
   style="stop-color:#FFFFFF"
   id="stop56" />
		<stop
   offset="0.2097"
   style="stop-color:#FFFFFF;stop-opacity:0"
   id="stop58" />
		<stop
   offset="0.3494"
   style="stop-color:#FFFFFF;stop-opacity:0.8107"
   id="stop60" />
		<stop
   offset="0.4285"
   style="stop-color:#FFFFFF;stop-opacity:0"
   id="stop62" />
		<stop
   offset="0.5213"
   style="stop-color:#FFFFFF"
   id="stop64" />
		<stop
   offset="0.5575"
   style="stop-color:#FFFFFF;stop-opacity:0"
   id="stop66" />
		<stop
   offset="0.71"
   style="stop-color:#FFFFFF;stop-opacity:0.568"
   id="stop68" />
		<stop
   offset="0.7439"
   style="stop-color:#FFFFFF;stop-opacity:0"
   id="stop70" />
		<stop
   offset="1"
   style="stop-color:#FFFFFF;stop-opacity:0"
   id="stop72" />
	</linearGradient>
	
		<path
   inkscape:radius="-0.5"
   inkscape:original="M 13.5 14.5 C 10.764102 14.5 8.5 16.764102 8.5 19.5 L 8.5 28.5625 C 8.5 31.298398 10.764102 33.5625 13.5 33.5625 L 18.5 33.5625 L 18.5 29.5625 L 13.5 29.5625 C 12.910913 29.5625 12.5 29.151587 12.5 28.5625 L 12.5 19.5 C 12.5 18.910914 12.910913 18.5 13.5 18.5 L 34.5 18.5 C 35.089091 18.5 35.5 18.910913 35.5 19.5 L 35.5 28.5625 C 35.5 29.151586 35.089087 29.5625 34.5 29.5625 L 29.5 29.5625 L 29.5 26.5 L 22.5 31.5 L 29.5 36.5 L 29.5 33.5625 L 34.5 33.5625 C 37.235898 33.5625 39.499998 31.298398 39.5 28.5625 L 39.5 19.5 C 39.5 16.764102 37.235899 14.5 34.5 14.5 L 13.5 14.5 z "
   sodipodi:type="inkscape:offset"
   enable-background="new    "
   d="M 13.5,15 C 11.039953,15 9,17.039953 9,19.5 v 9.0625 c 0,2.460047 2.039953,4.5 4.5,4.5 H 18 v -3 h -4.5 c -0.821601,0 -1.5,-0.678399 -1.5,-1.5 V 19.5 C 12,18.6784 12.678398,18 13.5,18 h 21 c 0.821603,0 1.5,0.678401 1.5,1.5 v 9.0625 c 0,0.8216 -0.678398,1.5 -1.5,1.5 h -5 a 0.50005,0.50005 0 0 1 -0.5,-0.5 V 27.470703 L 23.359375,31.5 29,35.529297 V 33.5625 a 0.50005,0.50005 0 0 1 0.5,-0.5 h 5 c 2.460047,0 4.499998,-2.039953 4.5,-4.5 V 19.5 C 39,17.039953 36.960048,15 34.5,15 Z"
   id="path75"
   style="opacity:0.4;fill:url(#SVGID_7_)" />
	
		<linearGradient
   id="SVGID_8_"
   gradientUnits="userSpaceOnUse"
   x1="-23.1206"
   y1="-800.07812"
   x2="1.2058001"
   y2="-786.68652"
   gradientTransform="matrix(1,0,0,-1,25.5,-769)">
		<stop
   offset="0"
   style="stop-color:#FFFFFF"
   id="stop77" />
		<stop
   offset="0.2097"
   style="stop-color:#FFFFFF;stop-opacity:0"
   id="stop79" />
		<stop
   offset="0.3494"
   style="stop-color:#FFFFFF;stop-opacity:0.8107"
   id="stop81" />
		<stop
   offset="0.4285"
   style="stop-color:#FFFFFF;stop-opacity:0"
   id="stop83" />
		<stop
   offset="0.5213"
   style="stop-color:#FFFFFF"
   id="stop85" />
		<stop
   offset="0.5575"
   style="stop-color:#FFFFFF;stop-opacity:0"
   id="stop87" />
		<stop
   offset="0.71"
   style="stop-color:#FFFFFF;stop-opacity:0.568"
   id="stop89" />
		<stop
   offset="0.7439"
   style="stop-color:#FFFFFF;stop-opacity:0"
   id="stop91" />
		<stop
   offset="1"
   style="stop-color:#FFFFFF;stop-opacity:0"
   id="stop93" />
	</linearGradient>
	
		<path
   inkscape:radius="-0.5"
   inkscape:original="M 13.5 14.5 C 10.764102 14.5 8.5 16.764102 8.5 19.5 L 8.5 28.5625 C 8.5 31.298398 10.764102 33.5625 13.5 33.5625 L 18.5 33.5625 L 18.5 29.5625 L 13.5 29.5625 C 12.910913 29.5625 12.5 29.151587 12.5 28.5625 L 12.5 19.5 C 12.5 18.910914 12.910913 18.5 13.5 18.5 L 34.5 18.5 C 35.089091 18.5 35.5 18.910913 35.5 19.5 L 35.5 28.5625 C 35.5 29.151586 35.089087 29.5625 34.5 29.5625 L 29.5 29.5625 L 29.5 26.5 L 22.5 31.5 L 29.5 36.5 L 29.5 33.5625 L 34.5 33.5625 C 37.235898 33.5625 39.499998 31.298398 39.5 28.5625 L 39.5 19.5 C 39.5 16.764102 37.235899 14.5 34.5 14.5 L 13.5 14.5 z "
   sodipodi:type="inkscape:offset"
   enable-background="new    "
   d="M 13.5,15 C 11.039953,15 9,17.039953 9,19.5 v 9.0625 c 0,2.460047 2.039953,4.5 4.5,4.5 H 18 v -3 h -4.5 c -0.821601,0 -1.5,-0.678399 -1.5,-1.5 V 19.5 C 12,18.6784 12.678398,18 13.5,18 h 21 c 0.821603,0 1.5,0.678401 1.5,1.5 v 9.0625 c 0,0.8216 -0.678398,1.5 -1.5,1.5 h -5 a 0.50005,0.50005 0 0 1 -0.5,-0.5 V 27.470703 L 23.359375,31.5 29,35.529297 V 33.5625 a 0.50005,0.50005 0 0 1 0.5,-0.5 h 5 c 2.460047,0 4.499998,-2.039953 4.5,-4.5 V 19.5 C 39,17.039953 36.960048,15 34.5,15 Z"
   id="path96"
   style="opacity:0.4;fill:url(#SVGID_8_)" />
</g><g
   id="g196"
   transform="matrix(1.3729437,0,0,1.3729437,-2.6106057,0.826294)">
	
		<linearGradient
   id="SVGID_9_"
   gradientUnits="userSpaceOnUse"
   x1="-1097.9995"
   y1="800.25677"
   x2="-1097.9995"
   y2="787.62378"
   gradientTransform="matrix(-1,0,0,1,-1063.5,-769.9961)">
		<stop
   offset="0"
   style="stop-color:#000000;stop-opacity:0.2353"
   id="stop100" />
		<stop
   offset="1"
   style="stop-color:#FFFFFF"
   id="stop102" />
	</linearGradient>
	<path
   enable-background="new    "
   d="m 41,28.504 v -9.062 c 0,-3.564 -2.936,-6.5 -6.5,-6.5 h -5 c -0.828,0.002 -1.498,0.672 -1.5,1.5 v 2.062 h 9 v 14.5"
   id="path105"
   inkscape:connector-curvature="0"
   style="opacity:0.4;fill:url(#SVGID_9_)" />
	
		<linearGradient
   id="SVGID_10_"
   gradientUnits="userSpaceOnUse"
   x1="-1080.4995"
   y1="800.13568"
   x2="-1080.4995"
   y2="785.44427"
   gradientTransform="matrix(-1,0,0,1,-1063.5,-769.9961)">
		<stop
   offset="0"
   style="stop-color:#000000;stop-opacity:0.2353"
   id="stop107" />
		<stop
   offset="1"
   style="stop-color:#FFFFFF"
   id="stop109" />
	</linearGradient>
	<path
   enable-background="new    "
   d="m 11,31.004 v -14.5 h 16 c 0,-0.482 -0.232,-0.936 -0.625,-1.219 l -7,-5 C 18.918,9.959 18.313,9.904 17.813,10.16 17.313,10.416 17.002,10.943 17,11.504 v 1.438 h -3.5 c -3.564,0 -6.5,2.936 -6.5,6.5 v 9.062"
   id="path112"
   inkscape:connector-curvature="0"
   style="opacity:0.4;fill:url(#SVGID_10_)" />
	
		<linearGradient
   id="SVGID_11_"
   gradientUnits="userSpaceOnUse"
   x1="-1082.4995"
   y1="796.65723"
   x2="-1082.4995"
   y2="786.49902"
   gradientTransform="matrix(-1,0,0,1,-1063.5,-769.9961)">
		<stop
   offset="0"
   style="stop-color:#FFFFFF"
   id="stop114" />
		<stop
   offset="0.5208"
   style="stop-color:#000000;stop-opacity:0.2353"
   id="stop116" />
		<stop
   offset="0.8003"
   style="stop-color:#000000;stop-opacity:0.2353"
   id="stop118" />
		<stop
   offset="1"
   style="stop-color:#FFFFFF"
   id="stop120" />
	</linearGradient>
	<path
   enable-background="new    "
   d="m 14,28.004 v -8.062 h 3 v 1.562 c 0.002,0.562 0.312,1.088 0.812,1.344 0.5,0.256 1.105,0.201 1.562,-0.125 l 7,-5 C 26.768,17.441 27,16.986 27,16.504 H 11 v 14.5"
   id="path123"
   inkscape:connector-curvature="0"
   style="opacity:0.4;fill:url(#SVGID_11_)" />
	
		<linearGradient
   id="SVGID_12_"
   gradientUnits="userSpaceOnUse"
   x1="-1095.9995"
   y1="796.65723"
   x2="-1095.9995"
   y2="786.49902"
   gradientTransform="matrix(-1,0,0,1,-1063.5,-769.9961)">
		<stop
   offset="0"
   style="stop-color:#FFFFFF"
   id="stop125" />
		<stop
   offset="0.5208"
   style="stop-color:#000000;stop-opacity:0.2353"
   id="stop127" />
		<stop
   offset="0.8003"
   style="stop-color:#000000;stop-opacity:0.2353"
   id="stop129" />
		<stop
   offset="1"
   style="stop-color:#FFFFFF"
   id="stop131" />
	</linearGradient>
	<path
   enable-background="new    "
   d="m 37,31.004 v -14.5 h -9 v 1.938 c 0.002,0.828 0.672,1.498 1.5,1.5 H 34 v 8.062"
   id="path134"
   inkscape:connector-curvature="0"
   style="opacity:0.4;fill:url(#SVGID_12_)" />
	
		<linearGradient
   id="SVGID_13_"
   gradientUnits="userSpaceOnUse"
   x1="-887.41357"
   y1="611.79883"
   x2="-887.41357"
   y2="622.64447"
   gradientTransform="matrix(-3.7501,0,0,1.7575,-3293.3855,-1060.7954)">
		<stop
   offset="0"
   style="stop-color:#EEEEEC"
   id="stop136" />
		<stop
   offset="1"
   style="stop-color:#808080"
   id="stop138" />
	</linearGradient>
	
		<path
   sodipodi:nodetypes="cccccccccccccccccccccccc"
   d="m 34.5,33.504 c 2.736,0 5,-2.264 5,-5 v -9.062 c 0,-2.736 -2.264,-5 -5,-5 h -5 v 4 h 5 c 0.589,0 1,0.412 1,1 v 9.062 c 0,0.59 -0.411,1 -1,1"
   id="path141"
   inkscape:connector-curvature="0"
   style="fill:url(#SVGID_13_);stroke:#555753;stroke-linecap:round;stroke-linejoin:round" />
	
		<linearGradient
   id="SVGID_14_"
   gradientUnits="userSpaceOnUse"
   x1="-882.74658"
   y1="622.64551"
   x2="-882.74658"
   y2="610.12793"
   gradientTransform="matrix(-3.7501,0,0,1.7575,-3293.3855,-1060.7954)">
		<stop
   offset="0"
   style="stop-color:#92948F"
   id="stop143" />
		<stop
   offset="1"
   style="stop-color:#EEEEEC"
   id="stop145" />
	</linearGradient>
	
		<path
   sodipodi:nodetypes="cccccccccccccccccccccccc"
   d="m 13.5,29.504 c -0.589,0 -1,-0.41 -1,-1 v -9.062 c 0,-0.588 0.411,-1 1,-1 h 5 v 3.062 l 7,-5 -7,-5 v 2.938 h -5 c -2.736,0 -5,2.264 -5,5 v 9.062 c 0,2.736 2.264,5 5,5"
   id="path148"
   inkscape:connector-curvature="0"
   style="fill:url(#SVGID_14_);stroke:#555753;stroke-linecap:round;stroke-linejoin:round" />
	
		<path
   inkscape:radius="-0.90625"
   inkscape:original="M 13.5 14.5 C 10.764102 14.5 8.5 16.764102 8.5 19.5 L 8.5 28.5625 C 8.5 31.298398 10.764102 33.5625 13.5 33.5625 L 18.5 33.5625 L 18.5 29.5625 L 13.5 29.5625 C 12.910913 29.5625 12.5 29.151587 12.5 28.5625 L 12.5 19.5 C 12.5 18.910914 12.910913 18.5 13.5 18.5 L 34.5 18.5 C 35.089091 18.5 35.5 18.910913 35.5 19.5 L 35.5 28.5625 C 35.5 29.151586 35.089087 29.5625 34.5 29.5625 L 29.5 29.5625 L 29.5 26.5 L 22.5 31.5 L 29.5 36.5 L 29.5 33.5625 L 34.5 33.5625 C 37.235898 33.5625 39.499998 31.298398 39.5 28.5625 L 39.5 19.5 C 39.5 16.764102 37.235899 14.5 34.5 14.5 L 13.5 14.5 z "
   sodipodi:type="inkscape:offset"
   d="m 13.5,15.40625 c -2.235918,0 -4.09375,1.857832 -4.09375,4.09375 v 9.0625 c 0,2.235918 1.857832,4.09375 4.09375,4.09375 h 4.09375 v -2.1875 H 13.5 c -1.010519,0 -1.90625,-0.895731 -1.90625,-1.90625 V 19.5 c 0,-1.010518 0.89573,-1.90625 1.90625,-1.90625 h 21 c 1.01052,0 1.90625,0.895735 1.90625,1.90625 v 9.0625 c 0,1.010518 -0.89573,1.90625 -1.90625,1.90625 h -5 A 0.90634063,0.90634063 0 0 1 28.59375,29.5625 V 28.261719 L 24.060547,31.5 28.59375,34.738281 V 33.5625 A 0.90634063,0.90634063 0 0 1 29.5,32.65625 h 5 c 2.235918,0 4.093748,-1.857831 4.09375,-4.09375 V 19.5 c 0,-2.235918 -1.857831,-4.09375 -4.09375,-4.09375 z"
   id="path150"
   style="fill:none;stroke:#ffffff;stroke-width:0.80000001;stroke-linecap:round" />
	
		<path
   inkscape:radius="-0.90625"
   inkscape:original="M 13.5 14.5 C 10.764102 14.5 8.5 16.764102 8.5 19.5 L 8.5 28.5625 C 8.5 31.298398 10.764102 33.5625 13.5 33.5625 L 18.5 33.5625 L 18.5 29.5625 L 13.5 29.5625 C 12.910913 29.5625 12.5 29.151587 12.5 28.5625 L 12.5 19.5 C 12.5 18.910914 12.910913 18.5 13.5 18.5 L 34.5 18.5 C 35.089091 18.5 35.5 18.910913 35.5 19.5 L 35.5 28.5625 C 35.5 29.151586 35.089087 29.5625 34.5 29.5625 L 29.5 29.5625 L 29.5 26.5 L 22.5 31.5 L 29.5 36.5 L 29.5 33.5625 L 34.5 33.5625 C 37.235898 33.5625 39.499998 31.298398 39.5 28.5625 L 39.5 19.5 C 39.5 16.764102 37.235899 14.5 34.5 14.5 L 13.5 14.5 z "
   sodipodi:type="inkscape:offset"
   d="m 13.5,15.40625 c -2.235918,0 -4.09375,1.857832 -4.09375,4.09375 v 9.0625 c 0,2.235918 1.857832,4.09375 4.09375,4.09375 h 4.09375 v -2.1875 H 13.5 c -1.010519,0 -1.90625,-0.895731 -1.90625,-1.90625 V 19.5 c 0,-1.010518 0.89573,-1.90625 1.90625,-1.90625 h 21 c 1.01052,0 1.90625,0.895735 1.90625,1.90625 v 9.0625 c 0,1.010518 -0.89573,1.90625 -1.90625,1.90625 h -5 A 0.90634063,0.90634063 0 0 1 28.59375,29.5625 V 28.261719 L 24.060547,31.5 28.59375,34.738281 V 33.5625 A 0.90634063,0.90634063 0 0 1 29.5,32.65625 h 5 c 2.235918,0 4.093748,-1.857831 4.09375,-4.09375 V 19.5 c 0,-2.235918 -1.857831,-4.09375 -4.09375,-4.09375 z"
   id="path152"
   style="fill:none;stroke:#ffffff;stroke-width:0.80000001;stroke-linecap:round" />
	
		<linearGradient
   id="SVGID_15_"
   gradientUnits="userSpaceOnUse"
   x1="-1109.1177"
   y1="786.92291"
   x2="-1084.7943"
   y2="800.31299"
   gradientTransform="matrix(-1,0,0,1,-1063.5,-769.9961)">
		<stop
   offset="0"
   style="stop-color:#FFFFFF"
   id="stop154" />
		<stop
   offset="0.2097"
   style="stop-color:#FFFFFF;stop-opacity:0"
   id="stop156" />
		<stop
   offset="0.3494"
   style="stop-color:#FFFFFF;stop-opacity:0.8107"
   id="stop158" />
		<stop
   offset="0.4285"
   style="stop-color:#FFFFFF;stop-opacity:0"
   id="stop160" />
		<stop
   offset="0.5213"
   style="stop-color:#FFFFFF"
   id="stop162" />
		<stop
   offset="0.5575"
   style="stop-color:#FFFFFF;stop-opacity:0"
   id="stop164" />
		<stop
   offset="0.71"
   style="stop-color:#FFFFFF;stop-opacity:0.568"
   id="stop166" />
		<stop
   offset="0.7439"
   style="stop-color:#FFFFFF;stop-opacity:0"
   id="stop168" />
		<stop
   offset="1"
   style="stop-color:#FFFFFF;stop-opacity:0"
   id="stop170" />
	</linearGradient>
	
		<path
   inkscape:radius="-0.5"
   inkscape:original="M 13.5 14.5 C 10.764102 14.5 8.5 16.764102 8.5 19.5 L 8.5 28.5625 C 8.5 31.298398 10.764102 33.5625 13.5 33.5625 L 18.5 33.5625 L 18.5 29.5625 L 13.5 29.5625 C 12.910913 29.5625 12.5 29.151587 12.5 28.5625 L 12.5 19.5 C 12.5 18.910914 12.910913 18.5 13.5 18.5 L 34.5 18.5 C 35.089091 18.5 35.5 18.910913 35.5 19.5 L 35.5 28.5625 C 35.5 29.151586 35.089087 29.5625 34.5 29.5625 L 29.5 29.5625 L 29.5 26.5 L 22.5 31.5 L 29.5 36.5 L 29.5 33.5625 L 34.5 33.5625 C 37.235898 33.5625 39.499998 31.298398 39.5 28.5625 L 39.5 19.5 C 39.5 16.764102 37.235899 14.5 34.5 14.5 L 13.5 14.5 z "
   sodipodi:type="inkscape:offset"
   enable-background="new    "
   d="M 13.5,15 C 11.039953,15 9,17.039953 9,19.5 v 9.0625 c 0,2.460047 2.039953,4.5 4.5,4.5 H 18 v -3 h -4.5 c -0.821601,0 -1.5,-0.678399 -1.5,-1.5 V 19.5 C 12,18.6784 12.678398,18 13.5,18 h 21 c 0.821603,0 1.5,0.678401 1.5,1.5 v 9.0625 c 0,0.8216 -0.678398,1.5 -1.5,1.5 h -5 a 0.50005,0.50005 0 0 1 -0.5,-0.5 V 27.470703 L 23.359375,31.5 29,35.529297 V 33.5625 a 0.50005,0.50005 0 0 1 0.5,-0.5 h 5 c 2.460047,0 4.499998,-2.039953 4.5,-4.5 V 19.5 C 39,17.039953 36.960048,15 34.5,15 Z"
   id="path173"
   style="opacity:0.4;fill:url(#SVGID_15_)" />
	
		<linearGradient
   id="SVGID_16_"
   gradientUnits="userSpaceOnUse"
   x1="-1098.874"
   y1="781.61328"
   x2="-1054.6606"
   y2="805.95312"
   gradientTransform="matrix(-1,0,0,1,-1063.5,-769.9961)">
		<stop
   offset="0"
   style="stop-color:#FFFFFF"
   id="stop175" />
		<stop
   offset="0.2097"
   style="stop-color:#FFFFFF;stop-opacity:0"
   id="stop177" />
		<stop
   offset="0.3494"
   style="stop-color:#FFFFFF;stop-opacity:0.8107"
   id="stop179" />
		<stop
   offset="0.4285"
   style="stop-color:#FFFFFF;stop-opacity:0"
   id="stop181" />
		<stop
   offset="0.5213"
   style="stop-color:#FFFFFF"
   id="stop183" />
		<stop
   offset="0.5575"
   style="stop-color:#FFFFFF;stop-opacity:0"
   id="stop185" />
		<stop
   offset="0.71"
   style="stop-color:#FFFFFF;stop-opacity:0.568"
   id="stop187" />
		<stop
   offset="0.7439"
   style="stop-color:#FFFFFF;stop-opacity:0"
   id="stop189" />
		<stop
   offset="1"
   style="stop-color:#FFFFFF;stop-opacity:0"
   id="stop191" />
	</linearGradient>
	
		<path
   inkscape:radius="-0.5"
   inkscape:original="M 13.5 14.5 C 10.764102 14.5 8.5 16.764102 8.5 19.5 L 8.5 28.5625 C 8.5 31.298398 10.764102 33.5625 13.5 33.5625 L 18.5 33.5625 L 18.5 29.5625 L 13.5 29.5625 C 12.910913 29.5625 12.5 29.151587 12.5 28.5625 L 12.5 19.5 C 12.5 18.910914 12.910913 18.5 13.5 18.5 L 34.5 18.5 C 35.089091 18.5 35.5 18.910913 35.5 19.5 L 35.5 28.5625 C 35.5 29.151586 35.089087 29.5625 34.5 29.5625 L 29.5 29.5625 L 29.5 26.5 L 22.5 31.5 L 29.5 36.5 L 29.5 33.5625 L 34.5 33.5625 C 37.235898 33.5625 39.499998 31.298398 39.5 28.5625 L 39.5 19.5 C 39.5 16.764102 37.235899 14.5 34.5 14.5 L 13.5 14.5 z "
   sodipodi:type="inkscape:offset"
   enable-background="new    "
   d="M 13.5,15 C 11.039953,15 9,17.039953 9,19.5 v 9.0625 c 0,2.460047 2.039953,4.5 4.5,4.5 H 18 v -3 h -4.5 c -0.821601,0 -1.5,-0.678399 -1.5,-1.5 V 19.5 C 12,18.6784 12.678398,18 13.5,18 h 21 c 0.821603,0 1.5,0.678401 1.5,1.5 v 9.0625 c 0,0.8216 -0.678398,1.5 -1.5,1.5 h -5 a 0.50005,0.50005 0 0 1 -0.5,-0.5 V 27.470703 L 23.359375,31.5 29,35.529297 V 33.5625 a 0.50005,0.50005 0 0 1 0.5,-0.5 h 5 c 2.460047,0 4.499998,-2.039953 4.5,-4.5 V 19.5 C 39,17.039953 36.960048,15 34.5,15 Z"
   id="path194"
   style="opacity:0.4;fill:url(#SVGID_16_)" />
</g>

<text
   xml:space="preserve"
   style="font-style:normal;font-weight:normal;font-size:40px;line-height:1.25;font-family:sans-serif;letter-spacing:0px;word-spacing:0px;fill:#d3d7cf;fill-opacity:1;stroke:#888a85;stroke-width:0.40000001;stroke-miterlimit:4;stroke-dasharray:none;stroke-opacity:1"
   x="16.015835"
   y="18.862288"
   id="text207"><tspan
     sodipodi:role="line"
     id="tspan205"
     x="16.015835"
     y="18.862288"
     style="font-size:10.66666698px;fill:#d3d7cf;stroke:#888a85;stroke-width:0.40000001;stroke-miterlimit:4;stroke-dasharray:none;stroke-opacity:1">AUTO</tspan></text>
<text
   xml:space="preserve"
   style="font-style:normal;font-weight:normal;font-size:40px;line-height:1.25;font-family:sans-serif;letter-spacing:0px;word-spacing:0px;fill:#d3d7cf;fill-opacity:1;stroke:#888a85;stroke-width:0.40000001;stroke-miterlimit:4;stroke-dasharray:none;stroke-opacity:1"
   x="11.346563"
   y="56.22567"
   id="text207-5"><tspan
     sodipodi:role="line"
     id="tspan205-6"
     x="11.346563"
     y="56.22567"
     style="font-size:10.66666698px;fill:#d3d7cf;stroke:#888a85;stroke-width:0.40000001;stroke-miterlimit:4;stroke-dasharray:none;stroke-opacity:1">Manual</tspan></text>
</svg>